# https://github.com/mikedh/trimesh
v -0.40471073 -0.17630299 0.14712696
v -0.40466500 -0.17630299 0.14658062
v -0.40302425 -0.17630299 0.15517820
v -0.40053165 -0.04792090 0.16072063
v -0.40074031 -0.04792090 0.15506318
v -0.40032870 -0.04792090 0.14885941
v -0.39511772 -0.17630299 0.14044394
v -0.39573228 -0.04792090 0.14451509
v -0.40054882 -0.17630299 0.16074938
v -0.40061170 -0.15648520 0.16087398
v -0.40063456 -0.14648205 0.16090513
v -0.40066315 -0.09647889 0.16093629
v -0.40066029 -0.08647574 0.16092910
v -0.40063743 -0.07647259 0.16088836
v -0.39511772 -0.07647259 0.16432931
v -0.39511772 -0.04792090 0.16405854
v -0.38512165 -0.17630299 0.14025944
v -0.38511879 -0.04792090 0.14330261
v -0.39511772 -0.17630299 0.16431493
v -0.39511772 -0.09647889 0.16440598
v -0.39511772 -0.08647574 0.16440360
v -0.38658805 -0.04792090 0.16465520
v -0.38169721 -0.17630299 0.14064522
v -0.37913604 -0.04792090 0.14637695
v -0.38512165 -0.17630299 0.16457373
v -0.38511879 -0.08647574 0.16469354
v -0.38511879 -0.04792090 0.16473426
v -0.37550863 -0.17630299 0.14651832
v -0.37897594 -0.04792090 0.14752952
v -0.38500731 -0.17630299 0.16450423
v -0.37922179 -0.04792090 0.16139875
v -0.38007647 -0.04792090 0.16189476
v -0.37697790 -0.17630299 0.15506318
v -0.37830706 -0.04792090 0.15506318
v -0.37840140 -0.04792090 0.15597853
v -0.37951334 -0.17630299 0.16101057
v -0.37947905 -0.15648520 0.16111121
f 1 2 7
f 1 7 17
f 1 17 23
f 1 23 28
f 1 28 33
f 1 33 36
f 1 36 30
f 1 30 25
f 1 25 19
f 1 19 9
f 1 9 3
f 1 3 4
f 1 4 5
f 1 5 6
f 1 6 2
f 2 6 8
f 2 8 7
f 3 9 10
f 3 10 11
f 3 11 12
f 3 12 13
f 3 13 14
f 3 14 4
f 4 14 15
f 4 15 16
f 4 16 22
f 4 22 27
f 4 27 32
f 4 32 31
f 4 31 35
f 4 35 34
f 4 34 29
f 4 29 24
f 4 24 18
f 4 18 8
f 4 8 6
f 4 6 5
f 7 8 18
f 7 18 17
f 9 19 10
f 10 19 11
f 11 19 20
f 11 20 12
f 12 20 21
f 12 21 13
f 13 21 14
f 14 21 15
f 15 21 22
f 15 22 16
f 17 18 23
f 18 24 23
f 19 25 26
f 19 26 20
f 20 26 27
f 20 27 21
f 21 27 22
f 23 24 28
f 24 29 28
f 25 30 31
f 25 31 32
f 25 32 26
f 26 32 27
f 28 29 34
f 28 34 35
f 28 35 31
f 28 31 33
f 30 36 37
f 30 37 31
f 31 37 33
f 33 37 36

