# https://github.com/mikedh/trimesh
v 0.50509463 -0.19651108 -0.08500262
v 0.50337001 -0.18651033 -0.08500262
v 0.50337001 -0.18651033 -0.07502499
v 0.50508467 -0.19651108 -0.01497327
v 0.50477747 -0.20651183 0.07501135
v 0.50477747 -0.20651183 -0.04499913
v 0.50508467 -0.19651108 -0.09501124
v 0.50336011 -0.18651033 -0.09501124
v 0.50105066 -0.18075195 -0.09501124
v 0.50105066 -0.18075195 -0.07502499
v 0.50104076 -0.18073566 -0.02498189
v 0.50104076 -0.18073973 -0.01497327
v 0.50335015 -0.18651033 -0.02498189
v 0.50334026 -0.18651033 -0.01497327
v 0.50506488 -0.19651108 0.00498200
v 0.50476751 -0.20651183 0.08501997
v 0.50226981 -0.21336646 0.08501997
v 0.50223016 -0.21328088 -0.04499913
v 0.50471796 -0.20651183 -0.10501986
v 0.50506488 -0.19651108 -0.10501986
v 0.50333036 -0.18651033 -0.10501986
v 0.50102097 -0.18077233 -0.11502848
v 0.50104076 -0.18076010 -0.10501986
v 0.49522265 -0.17963126 -0.11502848
v 0.49522265 -0.17962310 -0.10501986
v 0.49522265 -0.17958235 -0.03499051
v 0.49522265 -0.17957828 -0.02498189
v 0.49522265 -0.17957828 -0.01497327
v 0.49522265 -0.17961495 0.10503721
v 0.50090201 -0.18084162 0.10503721
v 0.50313210 -0.18651033 0.07501135
v 0.50498557 -0.19651108 0.06500273
v 0.50500543 -0.19651108 0.05502510
v 0.50470806 -0.20651183 0.10503721
v 0.50223016 -0.21332979 0.10503721
v 0.50224996 -0.21335424 0.09502859
v 0.49522265 -0.21533482 0.08501997
v 0.49522265 -0.21511475 -0.04499913
v 0.50218061 -0.21319123 -0.10501986
v 0.50216075 -0.21317492 -0.11502848
v 0.50468827 -0.20651183 -0.11502848
v 0.50501533 -0.19651108 -0.11502848
v 0.50328081 -0.18651033 -0.11502848
v 0.50080291 -0.18096387 -0.12503710
v 0.49522265 -0.17981464 -0.12503710
v 0.48522184 -0.17928485 -0.13504572
v 0.48522184 -0.17924411 -0.12503710
v 0.40384749 -0.17588607 0.14751961
v 0.48522184 -0.17910146 0.11504583
v 0.48522184 -0.17912999 0.12502346
v 0.49522265 -0.17965977 0.11504583
v 0.50085246 -0.18089051 0.11504583
v 0.50305285 -0.18651033 0.10503721
v 0.50492612 -0.19651108 0.08501997
v 0.50484682 -0.19651108 0.10503721
v 0.50478737 -0.19651108 0.11504583
v 0.50462876 -0.20651183 0.11504583
v 0.50218061 -0.21329310 0.11504583
v 0.49522265 -0.21526147 0.09502859
v 0.40384749 -0.21647998 0.15114502
v 0.40384749 -0.21751918 -0.14694452
v 0.49522265 -0.21492730 -0.10501986
v 0.49522265 -0.21486616 -0.11502848
v 0.49522265 -0.21477651 -0.12503710
v 0.50199231 -0.21307304 -0.12503710
v 0.50431160 -0.20651183 -0.12503710
v 0.50457921 -0.19651108 -0.12503710
v 0.50283479 -0.18651033 -0.12503710
v 0.50047579 -0.18126544 -0.13064565
v 0.49508389 -0.18047484 -0.13439500
v 0.48502361 -0.18029960 -0.14496138
v 0.47521110 -0.17945194 -0.14502336
v 0.40384749 -0.17619170 -0.15527986
v 0.40385739 -0.17619170 -0.15524888
v 0.40384749 -0.17676226 0.15077318
v 0.47521110 -0.18032813 0.14383225
v 0.48522184 -0.18061747 0.14206600
v 0.48522184 -0.17943972 0.13503208
v 0.50060464 -0.18112688 0.12170791
v 0.49560919 -0.18031591 0.12502346
v 0.50296365 -0.18651033 0.11504583
v 0.50374662 -0.19651108 0.12502346
v 0.50363762 -0.20651183 0.12502346
v 0.50169494 -0.21290188 0.12502346
v 0.49522265 -0.21509439 0.11504583
v 0.49522265 -0.21470316 0.12502346
v 0.48522184 -0.21487025 0.13503208
v 0.40384749 -0.21603985 0.15365495
v 0.40384749 -0.21715648 -0.15531087
v 0.47521110 -0.21477243 -0.14502336
v 0.48609405 -0.21354171 -0.14592196
v 0.49592638 -0.21350502 -0.13566546
v 0.50130837 -0.21249436 -0.13275273
v 0.50174449 -0.20574160 -0.13566546
v 0.50182380 -0.19722833 -0.13578940
v 0.50132823 -0.18651033 -0.13269074
v 0.49864217 -0.18651033 -0.13767958
v 0.49164455 -0.18079679 -0.14158387
v 0.48155454 -0.18094349 -0.15072485
v 0.47521110 -0.18056041 -0.15128261
v 0.40384749 -0.18219461 -0.15862639
v 0.40384749 -0.17974129 0.15433664
v 0.46521029 -0.18256138 0.14950275
v 0.49082189 -0.18111058 0.14064063
v 0.47521110 -0.18433820 0.14882105
v 0.49240776 -0.18061747 0.13503208
v 0.49920711 -0.18264696 0.12836999
v 0.50171474 -0.18619245 0.12502346
v 0.50094166 -0.18931413 0.13149962
v 0.50148678 -0.19651108 0.13258417
v 0.50145703 -0.20651183 0.13246020
v 0.50090201 -0.21218870 0.13137569
v 0.49529203 -0.21328496 0.13484616
v 0.49201129 -0.21258808 0.14163218
v 0.48522184 -0.21317492 0.14349138
v 0.47196009 -0.21169559 0.15018445
v 0.40384749 -0.21086831 0.15697047
v 0.40384749 -0.21689973 -0.15540383
v 0.47521110 -0.20651183 -0.15472210
v 0.47521110 -0.21315047 -0.15205726
v 0.48334854 -0.21261661 -0.15134459
v 0.49305201 -0.21268996 -0.14319517
v 0.49972251 -0.20855762 -0.13941481
v 0.50025773 -0.20189045 -0.14006553
v 0.50025773 -0.20104280 -0.14006553
v 0.50001987 -0.19437971 -0.13963171
v 0.49363678 -0.18651033 -0.14365994
v 0.48865125 -0.18651033 -0.14864878
v 0.48365580 -0.18651033 -0.15174741
v 0.47521110 -0.18651033 -0.15382350
v 0.47521110 -0.19651108 -0.15524888
v 0.40384749 -0.18651033 -0.15906022
v 0.40384749 -0.18645735 0.15690852
v 0.47521110 -0.18934266 0.15033939
v 0.48431988 -0.18729687 0.14686889
v 0.49228880 -0.18651033 0.14197304
v 0.49726443 -0.18619245 0.13490814
v 0.48038496 -0.19115616 0.15009149
v 0.49864217 -0.19651108 0.13757297
v 0.49836463 -0.20651183 0.13748001
v 0.49335927 -0.20651183 0.14290264
v 0.48446856 -0.20651999 0.14810835
v 0.47863062 -0.20986172 0.14971965
v 0.47526065 -0.20651999 0.15043235
v 0.40384749 -0.19975094 0.15709444
v 0.48063275 -0.20319048 0.15018445
v 0.40384749 -0.20651183 -0.15915318
v 0.48609405 -0.20676042 -0.15190235
v 0.49001906 -0.21025702 -0.14985723
v 0.49040560 -0.20358578 -0.15016712
v 0.49040560 -0.19904591 -0.15016712
v 0.49521275 -0.19671078 -0.14502336
v 0.49012809 -0.19238283 -0.14998120
v 0.48616342 -0.19603428 -0.15205726
v 0.40384749 -0.19651108 -0.15946303
v 0.40384749 -0.19163297 -0.15940105
v 0.40384749 -0.19651108 0.15706343
v 0.47521110 -0.19651108 0.15071123
v 0.49363678 -0.19651108 0.14318152
v 0.48564803 -0.19651108 0.14817033
v 0.48065257 -0.19651108 0.15018445
f 1 2 3
f 1 3 4
f 1 4 5
f 1 5 6
f 1 6 7
f 1 7 8
f 1 8 2
f 2 8 9
f 2 9 10
f 2 10 3
f 3 10 11
f 3 11 12
f 3 12 13
f 3 13 4
f 4 13 14
f 4 14 15
f 4 15 16
f 4 16 5
f 5 16 17
f 5 17 6
f 6 18 19
f 6 19 7
f 6 17 18
f 7 19 20
f 7 20 8
f 8 20 21
f 8 21 22
f 8 22 23
f 8 23 9
f 9 23 24
f 9 24 25
f 9 25 26
f 9 26 27
f 9 27 11
f 9 11 10
f 11 27 28
f 11 28 29
f 11 29 12
f 12 14 13
f 12 29 30
f 12 30 14
f 14 30 31
f 14 31 32
f 14 32 33
f 14 33 15
f 15 33 16
f 16 33 32
f 16 32 54
f 16 54 34
f 16 34 35
f 16 35 36
f 16 36 17
f 17 36 37
f 17 37 18
f 18 38 39
f 18 39 19
f 18 37 38
f 19 39 40
f 19 40 41
f 19 41 20
f 20 41 42
f 20 42 43
f 20 43 21
f 21 43 22
f 22 43 44
f 22 44 45
f 22 45 24
f 22 24 23
f 24 45 46
f 24 46 47
f 24 47 25
f 25 47 48
f 25 48 49
f 25 49 26
f 26 49 27
f 27 49 28
f 28 49 29
f 29 49 50
f 29 50 51
f 29 51 30
f 30 51 52
f 30 52 53
f 30 53 31
f 31 53 32
f 32 53 54
f 34 54 55
f 34 55 56
f 34 56 57
f 34 57 58
f 34 58 35
f 35 58 37
f 35 37 36
f 37 58 59
f 37 59 60
f 37 60 61
f 37 61 38
f 38 61 62
f 38 62 40
f 38 40 39
f 40 63 64
f 40 64 65
f 40 65 41
f 40 62 63
f 41 65 66
f 41 66 42
f 42 66 67
f 42 67 43
f 43 67 68
f 43 68 44
f 44 68 69
f 44 69 45
f 45 69 70
f 45 70 46
f 46 70 71
f 46 71 72
f 46 72 73
f 46 73 74
f 46 74 47
f 47 74 48
f 48 75 76
f 48 76 77
f 48 77 78
f 48 78 50
f 48 50 49
f 48 74 73
f 48 73 101
f 48 101 132
f 48 132 156
f 48 156 155
f 48 155 147
f 48 147 118
f 48 118 89
f 48 89 61
f 48 61 60
f 48 60 88
f 48 88 117
f 48 117 145
f 48 145 157
f 48 157 133
f 48 133 102
f 48 102 75
f 50 78 51
f 51 79 52
f 51 78 80
f 51 80 79
f 52 81 53
f 52 79 81
f 53 81 56
f 53 56 55
f 53 55 54
f 56 81 82
f 56 82 83
f 56 83 57
f 57 83 84
f 57 84 58
f 58 85 59
f 58 84 86
f 58 86 85
f 59 85 60
f 60 85 87
f 60 87 88
f 61 89 90
f 61 90 64
f 61 64 63
f 61 63 62
f 64 90 91
f 64 91 92
f 64 92 93
f 64 93 65
f 65 93 66
f 66 93 94
f 66 94 67
f 67 94 95
f 67 95 96
f 67 96 68
f 68 96 69
f 69 96 97
f 69 97 98
f 69 98 70
f 70 98 71
f 71 98 99
f 71 99 72
f 72 99 100
f 72 100 73
f 73 100 101
f 75 102 103
f 75 103 76
f 76 103 77
f 77 104 78
f 77 103 105
f 77 105 104
f 78 104 106
f 78 106 80
f 79 80 106
f 79 106 104
f 79 104 107
f 79 107 108
f 79 108 81
f 81 108 82
f 82 108 109
f 82 109 110
f 82 110 111
f 82 111 83
f 83 111 112
f 83 112 84
f 84 112 113
f 84 113 86
f 85 86 87
f 86 113 87
f 87 113 114
f 87 114 115
f 87 115 88
f 88 116 117
f 88 115 116
f 89 118 119
f 89 119 120
f 89 120 90
f 90 120 121
f 90 121 91
f 91 121 122
f 91 122 92
f 92 122 93
f 93 122 123
f 93 123 94
f 94 123 124
f 94 124 95
f 95 124 125
f 95 125 126
f 95 126 96
f 96 126 97
f 97 126 127
f 97 127 98
f 98 127 128
f 98 128 99
f 99 128 129
f 99 129 130
f 99 130 100
f 100 130 101
f 101 131 132
f 101 130 131
f 102 133 103
f 103 133 134
f 103 134 105
f 104 105 135
f 104 135 136
f 104 136 137
f 104 137 107
f 105 134 138
f 105 138 135
f 107 137 109
f 107 109 108
f 109 137 136
f 109 136 139
f 109 139 110
f 110 139 111
f 111 139 140
f 111 140 112
f 112 140 114
f 112 114 113
f 114 140 141
f 114 141 142
f 114 142 143
f 114 143 116
f 114 116 115
f 116 143 144
f 116 144 117
f 117 144 146
f 117 146 145
f 118 147 119
f 119 147 131
f 119 131 148
f 119 148 121
f 119 121 120
f 121 149 122
f 121 148 149
f 122 149 123
f 123 149 124
f 124 149 150
f 124 150 151
f 124 151 125
f 125 151 152
f 125 152 126
f 126 152 153
f 126 153 127
f 127 153 128
f 128 153 129
f 129 154 131
f 129 131 130
f 129 153 154
f 131 147 155
f 131 155 156
f 131 156 132
f 131 154 148
f 133 157 158
f 133 158 138
f 133 138 134
f 135 138 136
f 136 159 139
f 136 138 160
f 136 160 159
f 138 158 161
f 138 161 160
f 139 159 140
f 140 159 141
f 141 159 160
f 141 160 142
f 142 160 146
f 142 146 143
f 143 146 144
f 145 146 158
f 145 158 157
f 146 160 161
f 146 161 158
f 148 154 150
f 148 150 149
f 150 154 151
f 151 154 153
f 151 153 152

