# https://github.com/mikedh/trimesh
v -0.39495398 -0.23651610 -0.16589949
v -0.39566585 -0.24733424 -0.16323658
v -0.45501686 -0.24445881 -0.15489061
v -0.47503780 -0.20651356 -0.15255244
v -0.47503780 -0.19652758 -0.15261739
v -0.39504298 -0.17630300 -0.16424329
v 0.34857972 -0.24132334 -0.16011902
v 0.34857972 -0.24164282 -0.16011902
v -0.38810237 -0.25220835 -0.16125563
v -0.39272944 -0.25220835 -0.16125563
v -0.45501686 -0.24731938 -0.14501834
v -0.46507181 -0.24313627 -0.15268234
v -0.48304620 -0.20651356 -0.15109108
v -0.48277924 -0.19652758 -0.15109108
v -0.48144450 -0.18651932 -0.15060397
v -0.40073781 -0.17630300 -0.16106078
v -0.38507699 -0.17630300 -0.16401597
v 0.34866872 -0.18046383 -0.15138335
v 0.34866872 -0.18651932 -0.15398133
v 0.34866872 -0.19015260 -0.15443596
v 0.34866872 -0.19652758 -0.15521536
v -0.48028775 -0.18142973 -0.15011685
v -0.48420295 -0.18072388 -0.14466111
v 0.40383757 -0.17932703 -0.11040043
v 0.40383757 -0.24654666 -0.11040043
v 0.34857972 -0.24404273 -0.15502051
v -0.38810237 -0.25220835 -0.15843034
v 0.34857972 -0.24630889 -0.14501834
v -0.39272944 -0.25220835 -0.15843034
v -0.45501686 -0.24761658 0.14504466
v -0.46507181 -0.24547674 0.14504466
v -0.46507181 -0.24469658 -0.14501834
v -0.47005480 -0.24170227 -0.15037665
v -0.48794020 -0.20651356 -0.14891528
v -0.48197841 -0.21233130 -0.15073386
v -0.48776224 -0.19652758 -0.14885034
v -0.48642749 -0.18651932 -0.14758382
v -0.40456405 -0.17630300 -0.15443596
v -0.48509278 -0.17958707 -0.13501616
v -0.37956012 -0.17630300 -0.16080098
v 0.34866872 -0.17935676 -0.14501834
v -0.49256727 -0.18651932 -0.14258275
v -0.49105457 -0.18095421 -0.14102396
v 0.40383757 -0.17921558 0.08636308
v -0.37573388 -0.17630300 -0.15489061
v -0.37564488 -0.17630300 -0.15443596
v 0.40383757 -0.24654666 0.11120614
v 0.34857972 -0.24649465 0.14501218
v -0.38498799 -0.24945181 0.15504683
v -0.39495398 -0.24934035 0.15504683
v -0.45501686 -0.24495663 0.15504683
v -0.46435997 -0.24329972 0.15488446
v -0.47041075 -0.24214806 0.15140967
v -0.47058871 -0.24239326 0.14504466
v -0.47049972 -0.24232640 0.08503162
v -0.47032176 -0.24200690 -0.07497066
v -0.47032176 -0.24197717 -0.08500531
v -0.47023276 -0.24183600 -0.12501399
v -0.47014380 -0.24176171 -0.14501834
v -0.50235530 -0.21349038 -0.11497934
v -0.50199938 -0.21329720 -0.12501399
v -0.50110955 -0.21257649 -0.13215840
v -0.49256727 -0.21294057 -0.14251780
v -0.49390198 -0.20651356 -0.14391419
v -0.49372402 -0.19652758 -0.14384924
v -0.40465304 -0.17630300 -0.14534308
v -0.49505877 -0.17973568 -0.11497934
v -0.49505877 -0.17969109 -0.10497717
v -0.49505877 -0.17963910 -0.08500531
v -0.49461385 -0.18073874 -0.13410688
v -0.49505877 -0.18009233 -0.12501399
v -0.49870702 -0.19652758 -0.13784145
v -0.49755026 -0.18651932 -0.13634762
v -0.50013073 -0.18145203 -0.13017745
v 0.40383757 -0.17921558 0.11120614
v -0.37555592 -0.17630300 -0.14579772
v -0.37546692 -0.17630300 0.14647354
v 0.34857972 -0.24179885 0.16021029
v 0.34857972 -0.24339632 0.15693036
v 0.34857972 -0.24431021 0.15504683
v 0.34857972 -0.24569963 0.14868181
v -0.38498799 -0.24560305 0.16306805
v 0.30506752 -0.24205148 0.16040514
v -0.39495398 -0.24550645 0.16300310
v -0.46071169 -0.24176914 0.16017782
v -0.49230032 -0.21294057 0.14199205
v -0.50102052 -0.21259134 0.13189245
v -0.50199938 -0.21338636 0.12500784
v -0.50235530 -0.21363899 0.11500567
v -0.50235530 -0.21358698 -0.03499444
v -0.50235530 -0.21357954 -0.04499661
v -0.50493576 -0.20651356 -0.04499661
v -0.50484679 -0.20651356 -0.11497934
v -0.50395697 -0.20651356 -0.12501399
v -0.50164340 -0.20651356 -0.13319758
v -0.49879601 -0.20651356 -0.13819867
v -0.40456405 -0.17630300 0.14709056
v -0.50102052 -0.18074617 -0.11497934
v -0.50102052 -0.18071646 -0.10497717
v -0.50102052 -0.18069416 -0.09500747
v -0.50102052 -0.18067187 -0.08500531
v -0.50102052 -0.18069416 0.03498829
v -0.49505877 -0.17966881 0.04499046
v -0.50057564 -0.18109538 -0.12501399
v -0.50146547 -0.19652758 -0.13284036
v -0.50075363 -0.18651932 -0.13134653
v -0.50235530 -0.18651932 -0.12501399
v 0.34866872 -0.17917843 0.13497753
v 0.34866872 -0.18033008 0.14407041
v 0.34866872 -0.18362159 0.14907151
v 0.34866872 -0.18862945 0.15040295
v 0.34857972 -0.24115244 0.16021029
v -0.37689063 -0.17630300 0.15504683
v -0.37947112 -0.17630300 0.16095720
v -0.38507699 -0.17630300 0.16456188
v -0.38498799 -0.23651610 0.16586086
v -0.39495398 -0.23651610 0.16573096
v -0.46071169 -0.24123418 0.16017782
v -0.48553769 -0.20651356 0.14806479
v -0.49345710 -0.20651356 0.14306370
v -0.49844006 -0.20651356 0.13780283
v -0.50155443 -0.20651356 0.13280173
v -0.50395697 -0.20651356 0.12500784
v -0.50484679 -0.20651356 0.11500567
v -0.50493576 -0.20651356 -0.02499227
v -0.50520271 -0.19652758 0.02498612
v -0.50511375 -0.19652758 -0.09500747
v -0.50493576 -0.19652758 -0.11497934
v -0.50386800 -0.19652758 -0.12501399
v -0.40296238 -0.17630300 0.15514425
v -0.49505877 -0.17975054 0.10500349
v -0.49505877 -0.17976541 0.11500567
v -0.50333409 -0.18651932 -0.11497934
v -0.50351202 -0.18651932 -0.09500747
v -0.50351202 -0.18651932 0.10500349
v -0.50102052 -0.18072388 0.10500349
v -0.39504298 -0.17630300 0.16430208
v -0.48028775 -0.19106651 0.15011069
v -0.48544870 -0.19652758 0.14799984
v -0.49336810 -0.19652758 0.14299875
v -0.49835110 -0.19652758 0.13757549
v -0.50146547 -0.19652758 0.13257442
v -0.50386800 -0.19652758 0.12500784
v -0.50493576 -0.19652758 0.11500567
v -0.50502478 -0.19652758 0.10500349
v -0.40047088 -0.17630300 0.16072988
v -0.49505877 -0.18012204 0.12500784
v -0.48509278 -0.17975797 0.13501001
v -0.50102052 -0.18074617 0.11500567
v -0.50342306 -0.18651932 0.11500567
v -0.48509278 -0.18071646 0.14195957
v -0.49078761 -0.18109538 0.14066059
v -0.47503780 -0.18446862 0.14851944
v -0.48420295 -0.18724745 0.14673333
v -0.49221135 -0.18651932 0.14192710
v -0.50084259 -0.18651932 0.13130790
v -0.49719434 -0.18651932 0.13630899
v -0.50244426 -0.18651932 0.12500784
v -0.49452486 -0.18084276 0.13410072
v -0.50057564 -0.18109538 0.12500784
v -0.50013073 -0.18145945 0.13013882
f 1 2 3
f 1 3 4
f 1 4 5
f 1 5 6
f 1 6 7
f 1 7 8
f 1 8 2
f 2 8 9
f 2 9 10
f 2 10 3
f 3 10 11
f 3 11 12
f 3 12 13
f 3 13 4
f 4 13 5
f 5 13 14
f 5 14 15
f 5 15 6
f 6 16 38
f 6 38 66
f 6 66 97
f 6 97 130
f 6 130 146
f 6 146 137
f 6 137 115
f 6 115 114
f 6 114 113
f 6 113 77
f 6 77 76
f 6 76 46
f 6 46 45
f 6 45 40
f 6 40 17
f 6 17 18
f 6 18 19
f 6 19 20
f 6 20 21
f 6 21 7
f 6 15 22
f 6 22 23
f 6 23 16
f 7 21 24
f 7 24 25
f 7 25 8
f 8 25 26
f 8 26 9
f 9 27 29
f 9 29 10
f 9 26 28
f 9 28 25
f 9 25 47
f 9 47 27
f 10 29 30
f 10 30 11
f 11 30 31
f 11 31 32
f 11 32 12
f 12 33 34
f 12 34 35
f 12 35 13
f 12 32 33
f 13 35 34
f 13 34 14
f 14 34 36
f 14 36 15
f 15 36 37
f 15 37 22
f 16 23 39
f 16 39 38
f 17 40 24
f 17 24 41
f 17 41 18
f 18 41 24
f 18 24 19
f 19 24 20
f 20 24 21
f 22 37 42
f 22 42 43
f 22 43 23
f 23 43 39
f 24 44 75
f 24 75 47
f 24 47 25
f 24 40 45
f 24 45 46
f 24 46 44
f 25 28 26
f 27 48 49
f 27 49 29
f 27 47 48
f 29 50 30
f 29 49 50
f 30 51 52
f 30 52 31
f 30 50 51
f 31 52 53
f 31 53 54
f 31 54 55
f 31 55 56
f 31 56 32
f 32 56 57
f 32 57 58
f 32 58 59
f 32 59 33
f 33 59 60
f 33 60 61
f 33 61 62
f 33 62 63
f 33 63 64
f 33 64 34
f 34 64 65
f 34 65 36
f 36 65 42
f 36 42 37
f 38 39 67
f 38 67 68
f 38 68 69
f 38 69 66
f 39 43 70
f 39 70 71
f 39 71 67
f 42 65 72
f 42 72 73
f 42 73 74
f 42 74 43
f 43 74 70
f 44 46 76
f 44 76 77
f 44 77 75
f 47 75 112
f 47 112 78
f 47 78 79
f 47 79 80
f 47 80 81
f 47 81 48
f 48 81 49
f 49 82 50
f 49 81 80
f 49 80 83
f 49 83 82
f 50 82 84
f 50 84 51
f 51 85 52
f 51 84 85
f 52 85 53
f 53 86 87
f 53 87 88
f 53 88 54
f 53 85 86
f 54 88 89
f 54 89 90
f 54 90 91
f 54 91 60
f 54 60 55
f 55 60 57
f 55 57 56
f 57 60 58
f 58 60 59
f 60 91 92
f 60 92 93
f 60 93 61
f 61 93 94
f 61 94 62
f 62 94 95
f 62 95 96
f 62 96 63
f 63 96 64
f 64 96 65
f 65 96 72
f 66 69 97
f 67 71 98
f 67 98 68
f 68 98 99
f 68 99 69
f 69 99 100
f 69 100 101
f 69 101 102
f 69 102 103
f 69 103 97
f 70 74 104
f 70 104 71
f 71 104 98
f 72 96 95
f 72 95 105
f 72 105 106
f 72 106 73
f 73 106 74
f 74 106 107
f 74 107 104
f 75 108 109
f 75 109 110
f 75 110 111
f 75 111 112
f 75 77 113
f 75 113 114
f 75 114 115
f 75 115 108
f 78 112 116
f 78 116 83
f 78 83 79
f 79 83 80
f 82 83 116
f 82 116 84
f 84 117 85
f 84 116 117
f 85 118 119
f 85 119 120
f 85 120 86
f 85 117 118
f 86 120 121
f 86 121 87
f 87 121 122
f 87 122 123
f 87 123 88
f 88 123 124
f 88 124 89
f 89 124 125
f 89 125 92
f 89 92 90
f 90 92 91
f 92 125 126
f 92 126 127
f 92 127 93
f 93 127 128
f 93 128 94
f 94 128 129
f 94 129 95
f 95 129 105
f 97 103 131
f 97 131 132
f 97 132 130
f 98 104 133
f 98 133 134
f 98 134 99
f 99 134 100
f 100 134 101
f 101 134 135
f 101 135 102
f 102 135 136
f 102 136 103
f 103 136 131
f 104 107 133
f 105 129 106
f 106 129 107
f 107 129 128
f 107 128 133
f 108 115 109
f 109 115 110
f 110 115 111
f 111 115 112
f 112 115 116
f 115 137 117
f 115 117 116
f 117 137 118
f 118 137 138
f 118 138 139
f 118 139 119
f 119 139 140
f 119 140 120
f 120 140 121
f 121 141 142
f 121 142 122
f 121 140 141
f 122 142 143
f 122 143 123
f 123 143 144
f 123 144 124
f 124 144 145
f 124 145 126
f 124 126 125
f 126 145 135
f 126 135 134
f 126 134 127
f 127 134 133
f 127 133 128
f 130 132 146
f 131 136 132
f 132 147 148
f 132 148 146
f 132 136 149
f 132 149 147
f 135 150 149
f 135 149 136
f 135 145 144
f 135 144 150
f 137 146 148
f 137 148 151
f 137 151 152
f 137 152 153
f 137 153 138
f 138 153 154
f 138 154 155
f 138 155 139
f 139 155 140
f 140 155 141
f 141 156 142
f 141 155 157
f 141 157 156
f 142 156 143
f 143 158 144
f 143 156 158
f 144 158 150
f 147 159 148
f 147 149 160
f 147 160 161
f 147 161 159
f 148 159 152
f 148 152 151
f 149 150 160
f 150 158 160
f 152 159 161
f 152 161 157
f 152 157 155
f 152 155 154
f 152 154 153
f 156 157 161
f 156 161 158
f 158 161 160

