# https://github.com/mikedh/trimesh
v 0.34880676 -0.24648845 0.14505733
v 0.34880676 -0.24570388 0.14868209
v 0.34880676 -0.24640798 0.11121572
v 0.38958829 -0.25169886 0.15942266
v 0.38958829 -0.25169886 0.16040636
v 0.34880676 -0.24431578 0.15506014
v 0.38134039 -0.24652870 0.11121572
v 0.34880676 -0.17917568 0.11121572
v 0.39116137 -0.25169886 0.15942266
v 0.39134454 -0.24654881 0.11121572
v 0.39116137 -0.25169886 0.16040636
v 0.39477083 -0.24701150 0.16272128
v 0.38582260 -0.24650857 0.16247001
v 0.34880676 -0.24180110 0.16024597
v 0.34901686 -0.17917568 0.11121572
v 0.34880676 -0.17915556 0.13506524
v 0.37955182 -0.04617963 0.15506014
v 0.37987507 -0.04617963 0.14758611
v 0.38423337 -0.04617963 0.14320220
v 0.40383757 -0.24654881 0.11121572
v 0.40383757 -0.24709197 0.14505733
v 0.40383757 -0.24701150 0.15514032
v 0.40383757 -0.24409449 0.16155046
v 0.39518026 -0.23651024 0.16582744
v 0.38517612 -0.23651024 0.16531419
v 0.34880676 -0.24113722 0.16024597
v 0.40383757 -0.17919579 0.11121572
v 0.34880676 -0.18032238 0.14411105
v 0.37982659 -0.04617963 0.16061486
v 0.39562202 -0.04617963 0.14454945
v 0.40383757 -0.23717411 0.16210112
v 0.39518566 -0.04617963 0.16367290
v 0.38518151 -0.04617963 0.16381726
v 0.34880676 -0.18861073 0.15043565
v 0.40383757 -0.17587642 0.14753264
v 0.40027121 -0.04617963 0.14906702
v 0.40035204 -0.04617963 0.14927017
v 0.40060522 -0.04617963 0.15479283
v 0.34880676 -0.18362162 0.14910979
v 0.34880676 -0.18680017 0.14995983
v 0.40383757 -0.18643806 0.15692596
v 0.40044360 -0.04617963 0.16047585
v 0.40383757 -0.17676160 0.15078849
v 0.40046515 -0.04617963 0.16032617
v 0.40383757 -0.17973896 0.15434374
f 1 2 6
f 1 6 14
f 1 14 26
f 1 26 34
f 1 34 40
f 1 40 39
f 1 39 28
f 1 28 16
f 1 16 8
f 1 8 3
f 1 3 4
f 1 4 5
f 1 5 2
f 2 5 6
f 3 7 4
f 3 8 15
f 3 15 27
f 3 27 20
f 3 20 10
f 3 10 7
f 4 9 11
f 4 11 5
f 4 7 10
f 4 10 20
f 4 20 9
f 5 11 12
f 5 12 13
f 5 13 14
f 5 14 6
f 8 16 17
f 8 17 18
f 8 18 19
f 8 19 15
f 9 20 21
f 9 21 11
f 11 21 22
f 11 22 23
f 11 23 12
f 12 23 24
f 12 24 13
f 13 24 25
f 13 25 14
f 14 25 26
f 15 19 27
f 16 28 17
f 17 29 33
f 17 33 32
f 17 32 42
f 17 42 44
f 17 44 38
f 17 38 37
f 17 37 36
f 17 36 30
f 17 30 19
f 17 19 18
f 17 28 29
f 19 30 27
f 20 27 35
f 20 35 43
f 20 43 45
f 20 45 41
f 20 41 31
f 20 31 23
f 20 23 22
f 20 22 21
f 23 31 24
f 24 31 32
f 24 32 33
f 24 33 25
f 25 33 26
f 26 33 29
f 26 29 34
f 27 30 36
f 27 36 37
f 27 37 38
f 27 38 35
f 28 39 29
f 29 39 40
f 29 40 34
f 31 41 42
f 31 42 32
f 35 38 43
f 38 44 45
f 38 45 43
f 41 45 44
f 41 44 42

