# https://github.com/mikedh/trimesh
v 0.38509264 0.23364356 -0.16638072
v 0.38509264 0.24365086 -0.16382068
v 0.39508987 0.23364356 -0.16579741
v 0.38509264 0.22365563 -0.16625109
v -0.39508770 0.23364356 -0.16495488
v -0.39597854 0.24461993 -0.16255686
v 0.39241734 0.24910996 -0.16083938
v 0.39548580 0.24432920 -0.16281611
v -0.39330601 0.24927794 -0.16093659
v -0.38766401 0.24927794 -0.16093659
v 0.39508987 0.22365563 -0.16557058
v 0.47516674 0.23364356 -0.15649705
v 0.47516674 0.22365563 -0.15733959
v 0.38509264 0.19672832 -0.16557058
v -0.38984163 0.18838783 -0.16365865
v -0.39508770 0.22365563 -0.16466322
v -0.47506558 0.22365563 -0.15500639
v -0.47506558 0.23364356 -0.15487677
v -0.47506558 0.24280453 -0.15234914
v 0.39340717 0.24921333 -0.15500639
v 0.48516397 0.24786310 -0.13497980
v 0.47516674 0.24739149 -0.14499310
v 0.47516674 0.24278515 -0.15273801
v -0.38627826 0.24955574 -0.15500639
v -0.47506558 0.24734626 -0.14499310
v -0.48506282 0.24761114 -0.13501221
v -0.39597854 0.24942006 -0.15565450
v 0.48516397 0.24094391 -0.15144178
v 0.48516397 0.23364356 -0.15396941
v 0.48516397 0.22365563 -0.15497398
v 0.48516397 0.21567693 -0.15241396
v 0.39588173 0.19672832 -0.16291332
v -0.38509047 0.18838783 -0.16365865
v -0.38509047 0.18355538 0.14678581
v -0.39508770 0.18838783 -0.16352902
v -0.48506282 0.21645220 -0.15127976
v -0.48506282 0.22365563 -0.15260839
v -0.48585468 0.23381799 -0.15186306
v -0.48308317 0.24128632 -0.15137698
v 0.38628043 0.24949114 0.15501681
v 0.39588173 0.24940068 0.15521124
v 0.48516397 0.24789540 -0.12496651
v 0.48516397 0.24553085 -0.14499310
v 0.49516120 0.24706200 -0.05497068
v 0.49516120 0.24682296 -0.11498563
v 0.49516120 0.24655808 -0.12496651
v -0.48506282 0.24759822 0.12497693
v -0.39033654 0.24868359 0.16003965
v -0.48585468 0.24381883 -0.14590045
v -0.49585191 0.24361210 -0.13569273
v -0.49506005 0.24683587 -0.12496651
v -0.49506005 0.24703615 -0.11498563
v -0.49506005 0.24713953 0.01492793
v -0.49506005 0.24714598 0.03495451
v 0.49041004 0.23899931 -0.15014557
v 0.49120190 0.23364356 -0.15089090
v 0.49189478 0.22365563 -0.15147419
v 0.49130088 0.21714346 -0.15095571
v 0.48516397 0.21183940 -0.14499310
v 0.39855426 0.19672832 -0.16106621
v -0.37934948 0.18355538 0.14911900
v -0.37954745 0.18838783 -0.16080697
v -0.39508770 0.18355538 0.14730429
v -0.40043275 0.18355538 0.14960509
v -0.39766124 0.18838783 -0.16216800
v -0.40043275 0.18838783 -0.16064495
v -0.48506282 0.21223995 -0.14499310
v -0.49040787 0.21809961 -0.15024278
v -0.49050685 0.22365563 -0.15034001
v -0.49030889 0.23060067 -0.15021038
v -0.48981398 0.23726789 -0.14982151
v -0.49308040 0.24160289 -0.14314599
v 0.38796313 0.24918751 0.16088219
v 0.39301124 0.24918751 0.16088219
v 0.48516397 0.24789540 0.13499022
v 0.48516397 0.24805690 0.12497693
v 0.49516120 0.24719121 0.02497362
v 0.49516120 0.24708783 -0.04498980
v 0.49595306 0.24354102 -0.13553070
v 0.49258766 0.24118294 -0.14499310
v 0.50208998 0.24244275 -0.05497068
v 0.50189201 0.24219079 -0.11498563
v 0.50179303 0.24191298 -0.12496651
v 0.50110015 0.24064672 -0.13254939
v -0.48506282 0.24741732 0.13499022
v -0.49506005 0.24712013 0.10495034
v -0.49506005 0.24706200 0.11499604
v -0.46506835 0.24716536 0.14500350
v -0.47506558 0.24668082 0.14500350
v -0.47506558 0.24221662 0.15200309
v -0.39419686 0.24399326 0.16191916
v -0.50139493 0.24096976 -0.13280864
v -0.50238475 0.24236522 -0.12496651
v -0.50258272 0.24259780 -0.11498563
v -0.50268170 0.24257842 -0.09499145
v -0.50268170 0.24265595 0.00497945
v -0.50268170 0.24266240 0.01492793
v -0.50268170 0.24264948 0.10495034
v 0.49981338 0.23734542 -0.13922493
v 0.49684390 0.23386967 -0.14444220
v 0.50060524 0.23067819 -0.14074798
v 0.49694289 0.22365563 -0.14603008
v 0.50060524 0.21789934 -0.14065077
v 0.49486425 0.21574800 -0.14437740
v 0.49516120 0.21277617 -0.13497980
v 0.40003899 0.19672832 -0.15814973
v 0.40043492 0.19672832 -0.15581653
v -0.37845864 0.18355538 0.15501681
v -0.40082868 0.18355538 0.15501681
v -0.40063072 0.18838783 -0.15795529
v -0.49506005 0.21053438 -0.11498563
v -0.49506005 0.21080572 -0.12496651
v -0.49506005 0.21239500 -0.13501221
v -0.49426819 0.21642635 -0.14408574
v -0.50020714 0.21833219 -0.14019709
v -0.49555496 0.22365563 -0.14518754
v -0.50020714 0.22954114 -0.14013227
v -0.49506005 0.23340451 -0.14496070
v -0.49981121 0.23620192 -0.13945175
v 0.39588173 0.24443258 0.16237284
v 0.47516674 0.24208742 0.15158181
v 0.47516674 0.24681004 0.14500350
v 0.46516951 0.24749485 0.14500350
v 0.48526295 0.24341182 0.14548959
v 0.49248867 0.24154474 0.14247589
v 0.49555713 0.24313402 0.13486060
v 0.49516120 0.24623506 0.12497693
v 0.49516120 0.24702324 0.11499604
v 0.49516120 0.24713306 0.10495034
v 0.49516120 0.24715244 0.09496945
v 0.49516120 0.24717829 0.06499439
v 0.49516120 0.24718474 0.05498110
v 0.50218896 0.24253964 0.02497362
v 0.50476250 0.23364356 -0.05497068
v 0.50466352 0.23364356 -0.11498563
v 0.50199099 0.24224247 -0.09492664
v 0.50436657 0.23364356 -0.12496651
v 0.50199099 0.23386967 -0.13553070
v -0.48526078 0.24332784 0.14548959
v -0.49506005 0.24624797 0.12497693
v -0.49545598 0.24303711 0.13492540
v -0.50258272 0.24257196 0.11499604
v -0.48209334 0.24073071 0.15103093
v -0.47506558 0.23364356 0.15410945
v -0.39508770 0.23364356 0.16467364
v -0.50188984 0.23317840 -0.13569273
v -0.50485932 0.23364356 -0.12496651
v -0.50525525 0.23364356 -0.11498563
v -0.50535423 0.23364356 -0.09499145
v -0.50545321 0.23364356 0.07497527
v -0.50545321 0.23364356 0.09496945
v -0.50535423 0.23364356 0.10495034
v 0.50337675 0.22365563 -0.13497980
v 0.50080320 0.22365563 -0.14103963
v 0.50169405 0.21642635 -0.13497980
v 0.50268387 0.21523762 -0.12496651
v 0.49516120 0.21189109 -0.12496651
v 0.49516120 0.21158099 -0.11498563
v 0.49516120 0.21127733 -0.10497233
v 0.40142475 0.19672832 0.15193829
v -0.37925050 0.18355538 0.16127105
v 0.40092984 0.19672832 0.15880824
v -0.40082868 0.18838783 -0.15500639
v -0.40053173 0.18355538 0.16078498
v -0.49506005 0.21056023 0.11499604
v -0.49506005 0.21041164 0.10495034
v -0.49506005 0.21032765 0.06499439
v -0.49506005 0.21030826 0.05498110
v -0.49506005 0.21029535 0.04493540
v -0.49506005 0.21026950 -0.05497068
v -0.49506005 0.21036641 -0.10500474
v -0.50287967 0.21467556 -0.11498563
v -0.50268170 0.21480476 -0.12496651
v -0.50139493 0.21654264 -0.13501221
v -0.50030612 0.22365563 -0.14022950
v -0.50268170 0.22365563 -0.13501221
v 0.39508987 0.23364356 0.16447920
v 0.47516674 0.23364356 0.15352615
v 0.48189755 0.24054336 0.15080409
v 0.49407239 0.23364356 0.14409616
v 0.49912050 0.23364356 0.13810114
v 0.50080320 0.24009112 0.13145802
v 0.48852937 0.23364356 0.14911900
v 0.50149608 0.24152536 0.12497693
v 0.50199099 0.24233291 0.11499604
v 0.50199099 0.24244275 0.10495034
v 0.50218896 0.24252673 0.05498110
v 0.50486149 0.23364356 0.05498110
v 0.50486149 0.23364356 0.01492793
v 0.50565335 0.22365563 -0.06498398
v 0.50555436 0.22365563 -0.11498563
v 0.50535640 0.22365563 -0.12496651
v -0.49238752 0.24138969 0.14244348
v -0.50179086 0.24175147 0.12497693
v -0.50080103 0.24022034 0.13155524
v -0.50515626 0.23364356 0.11499604
v -0.48823026 0.23364356 0.14882736
v -0.48328113 0.23364356 0.15158181
v -0.47506558 0.22365563 0.15420667
v -0.39508770 0.21366126 0.16441439
v -0.38509047 0.18355538 0.16431716
v -0.50515626 0.22365563 -0.12496651
v -0.50555219 0.22365563 -0.11498563
v -0.50555219 0.22365563 0.10495034
v 0.50288184 0.21512780 -0.11498563
v 0.50288184 0.21510840 -0.10497233
v 0.50288184 0.21510195 0.09496945
v 0.50288184 0.21510195 0.10495034
v 0.49516120 0.21130964 0.08498857
v 0.49516120 0.21132903 0.10495034
v 0.40043492 0.19672832 0.16049333
v 0.39677257 0.19672832 0.16253487
v 0.39508987 0.19672832 0.16344223
v 0.49516120 0.21184586 0.12497693
v -0.39508770 0.18355538 0.16383109
v -0.48229131 0.21674291 0.15109574
v -0.48535976 0.21432670 0.14555441
v -0.49258549 0.21610333 0.14263791
v -0.49555496 0.21428792 0.13518465
v -0.49506005 0.21114167 0.12497693
v -0.50278068 0.21469494 0.11499604
v -0.50287967 0.21464326 0.10495034
v -0.50287967 0.21463034 0.09496945
v -0.50287967 0.21459158 0.04493540
v -0.50287967 0.21459158 0.03495451
v -0.50287967 0.21460449 0.00497945
v -0.50287967 0.21465617 -0.10500474
v 0.38509264 0.19672832 0.16383109
v 0.38826008 0.19672832 0.16373387
v 0.47516674 0.22365563 0.15397983
v 0.48358025 0.23364356 0.15141979
v 0.49456731 0.22365563 0.14451743
v 0.49961541 0.22365563 0.13907330
v 0.48922225 0.22365563 0.14947546
v 0.50169405 0.23364356 0.13311070
v 0.50387166 0.23364356 0.12497693
v 0.50466352 0.23364356 0.11499604
v 0.50476250 0.23364356 0.10495034
v 0.50565335 0.22365563 0.10495034
v -0.49862342 0.23364356 0.13761506
v -0.49367429 0.23364356 0.14383691
v -0.50377051 0.23364356 0.12497693
v -0.50139493 0.23364356 0.13259222
v -0.50406746 0.22365563 0.12497693
v -0.50535423 0.22365563 0.11499604
v -0.48842822 0.22365563 0.14898938
v -0.48338011 0.22365563 0.15161422
v -0.39508770 0.20364750 0.16425236
v -0.39508770 0.20955885 0.16434957
v 0.50278285 0.21512780 0.11499604
v 0.49595306 0.21444944 0.13563833
v 0.48575786 0.21464972 0.14581364
v 0.48288737 0.21689151 0.15116054
v 0.50248591 0.21539914 0.12497693
v -0.49387226 0.22365563 0.14396653
v -0.49882138 0.22365563 0.13790671
v -0.50109798 0.21676876 0.13197651
v -0.50208781 0.21528930 0.12497693
v 0.48417414 0.22365563 0.15167904
v 0.49308257 0.21619377 0.14299437
v 0.50149608 0.21665247 0.13272183
v 0.50218896 0.22365563 0.13401806
v 0.50476250 0.22365563 0.12497693
v 0.50545538 0.22365563 0.11499604
v -0.50159289 0.22365563 0.13291626
f 1 2 3
f 1 3 4
f 1 4 5
f 1 5 6
f 1 6 2
f 2 7 8
f 2 8 3
f 2 6 9
f 2 9 10
f 2 10 7
f 3 11 4
f 3 8 12
f 3 12 13
f 3 13 11
f 4 11 14
f 4 14 5
f 5 15 16
f 5 16 17
f 5 17 18
f 5 18 6
f 5 14 15
f 6 18 19
f 6 19 9
f 7 20 21
f 7 21 22
f 7 22 23
f 7 23 8
f 7 10 24
f 7 24 20
f 8 23 12
f 9 24 10
f 9 19 25
f 9 25 26
f 9 26 27
f 9 27 24
f 11 13 14
f 12 23 28
f 12 28 29
f 12 29 30
f 12 30 13
f 13 30 31
f 13 31 14
f 14 31 32
f 14 32 33
f 14 33 15
f 15 33 34
f 15 34 35
f 15 35 16
f 16 35 17
f 17 36 37
f 17 37 18
f 17 35 36
f 18 37 38
f 18 38 39
f 18 39 19
f 19 39 25
f 20 40 41
f 20 41 42
f 20 42 21
f 20 24 40
f 21 43 22
f 21 42 44
f 21 44 45
f 21 45 46
f 21 46 43
f 22 43 23
f 23 43 28
f 24 27 47
f 24 47 48
f 24 48 40
f 25 39 49
f 25 49 26
f 26 47 27
f 26 49 50
f 26 50 51
f 26 51 52
f 26 52 53
f 26 53 54
f 26 54 47
f 28 43 55
f 28 55 29
f 29 55 56
f 29 56 30
f 30 56 57
f 30 57 58
f 30 58 31
f 31 59 32
f 31 58 59
f 32 59 60
f 32 60 61
f 32 61 62
f 32 62 33
f 33 62 61
f 33 61 34
f 34 63 35
f 34 61 108
f 34 108 161
f 34 161 201
f 34 201 215
f 34 215 164
f 34 164 109
f 34 109 64
f 34 64 63
f 35 63 64
f 35 64 65
f 35 65 36
f 36 65 66
f 36 66 67
f 36 67 68
f 36 68 37
f 37 68 69
f 37 69 70
f 37 70 38
f 38 70 71
f 38 71 39
f 39 71 72
f 39 72 49
f 40 73 74
f 40 74 41
f 40 48 73
f 41 75 76
f 41 76 42
f 41 74 75
f 42 76 77
f 42 77 78
f 42 78 44
f 43 46 79
f 43 79 80
f 43 80 55
f 44 78 81
f 44 81 45
f 45 81 82
f 45 82 46
f 46 82 83
f 46 83 84
f 46 84 79
f 47 85 48
f 47 54 86
f 47 86 87
f 47 87 85
f 48 85 88
f 48 88 89
f 48 89 90
f 48 90 91
f 48 91 73
f 49 72 50
f 50 72 92
f 50 92 51
f 51 92 93
f 51 93 94
f 51 94 52
f 52 94 95
f 52 95 53
f 53 95 96
f 53 96 97
f 53 97 54
f 54 97 98
f 54 98 86
f 55 80 99
f 55 99 100
f 55 100 56
f 56 100 101
f 56 101 102
f 56 102 57
f 57 102 58
f 58 102 103
f 58 103 104
f 58 104 59
f 59 104 105
f 59 105 60
f 60 106 61
f 60 105 106
f 61 106 107
f 61 107 108
f 64 109 110
f 64 110 66
f 64 66 65
f 66 110 111
f 66 111 112
f 66 112 113
f 66 113 67
f 67 113 114
f 67 114 68
f 68 114 115
f 68 115 116
f 68 116 69
f 69 116 70
f 70 116 117
f 70 117 118
f 70 118 71
f 71 118 119
f 71 119 72
f 72 119 92
f 73 120 74
f 73 91 120
f 74 120 121
f 74 121 122
f 74 122 123
f 74 123 75
f 75 123 122
f 75 122 124
f 75 124 125
f 75 125 126
f 75 126 127
f 75 127 128
f 75 128 76
f 76 128 129
f 76 129 130
f 76 130 131
f 76 131 132
f 76 132 77
f 77 132 133
f 77 133 78
f 78 133 81
f 79 84 80
f 80 84 99
f 81 133 134
f 81 134 135
f 81 135 136
f 81 136 82
f 82 136 135
f 82 135 83
f 83 135 137
f 83 137 84
f 84 137 138
f 84 138 99
f 85 139 89
f 85 89 88
f 85 87 140
f 85 140 141
f 85 141 139
f 86 98 87
f 87 98 142
f 87 142 140
f 89 139 90
f 90 139 143
f 90 143 144
f 90 144 145
f 90 145 91
f 91 145 120
f 92 146 147
f 92 147 93
f 92 119 146
f 93 147 148
f 93 148 94
f 94 148 149
f 94 149 95
f 95 149 150
f 95 150 96
f 96 150 97
f 97 150 151
f 97 151 98
f 98 151 152
f 98 152 142
f 99 101 100
f 99 138 101
f 101 138 153
f 101 153 154
f 101 154 102
f 102 154 103
f 103 154 153
f 103 153 155
f 103 155 104
f 104 155 105
f 105 155 156
f 105 156 157
f 105 157 106
f 106 157 158
f 106 158 159
f 106 159 107
f 107 160 108
f 107 159 160
f 108 160 162
f 108 162 161
f 109 163 110
f 109 164 165
f 109 165 166
f 109 166 167
f 109 167 168
f 109 168 169
f 109 169 170
f 109 170 171
f 109 171 163
f 110 163 171
f 110 171 111
f 111 171 172
f 111 172 173
f 111 173 112
f 112 173 113
f 113 173 174
f 113 174 115
f 113 115 114
f 115 175 116
f 115 174 176
f 115 176 175
f 116 175 117
f 117 119 118
f 117 175 176
f 117 176 146
f 117 146 119
f 120 177 178
f 120 178 121
f 120 145 177
f 121 178 179
f 121 179 124
f 121 124 122
f 124 179 125
f 125 180 181
f 125 181 182
f 125 182 126
f 125 179 183
f 125 183 180
f 126 182 184
f 126 184 127
f 127 184 185
f 127 185 128
f 128 185 186
f 128 186 129
f 129 186 187
f 129 187 130
f 130 187 131
f 131 187 132
f 132 187 133
f 133 187 188
f 133 188 189
f 133 189 134
f 134 189 190
f 134 190 135
f 135 190 191
f 135 191 192
f 135 192 137
f 137 192 153
f 137 153 138
f 139 141 193
f 139 193 143
f 140 142 194
f 140 194 141
f 141 195 193
f 141 194 195
f 142 152 196
f 142 196 194
f 143 193 197
f 143 197 198
f 143 198 144
f 144 198 199
f 144 199 145
f 145 199 200
f 145 200 201
f 145 201 177
f 146 176 147
f 147 202 203
f 147 203 148
f 147 176 202
f 148 203 149
f 149 203 150
f 150 203 204
f 150 204 151
f 151 204 152
f 152 204 245
f 152 245 196
f 153 192 155
f 155 192 156
f 156 192 205
f 156 205 159
f 156 159 158
f 156 158 157
f 159 205 206
f 159 206 207
f 159 207 208
f 159 208 209
f 159 209 160
f 160 209 210
f 160 210 162
f 161 162 211
f 161 211 212
f 161 212 213
f 161 213 201
f 162 210 214
f 162 214 211
f 164 215 216
f 164 216 217
f 164 217 218
f 164 218 219
f 164 219 220
f 164 220 165
f 165 220 221
f 165 221 166
f 166 221 222
f 166 222 167
f 167 222 168
f 168 222 223
f 168 223 169
f 169 223 224
f 169 224 170
f 170 224 225
f 170 225 226
f 170 226 227
f 170 227 171
f 171 227 172
f 172 227 203
f 172 203 173
f 173 203 202
f 173 202 174
f 174 202 176
f 177 201 228
f 177 228 229
f 177 229 213
f 177 213 230
f 177 230 178
f 178 230 231
f 178 231 179
f 179 231 183
f 180 232 233
f 180 233 181
f 180 183 234
f 180 234 232
f 181 233 235
f 181 235 182
f 182 235 236
f 182 236 184
f 183 231 234
f 184 236 237
f 184 237 185
f 185 187 186
f 185 237 238
f 185 238 187
f 187 238 188
f 188 238 239
f 188 239 190
f 188 190 189
f 190 239 208
f 190 208 207
f 190 207 206
f 190 206 205
f 190 205 191
f 191 205 192
f 193 195 240
f 193 240 241
f 193 241 197
f 194 196 242
f 194 242 195
f 195 242 243
f 195 243 240
f 196 244 242
f 196 245 244
f 197 246 198
f 197 241 246
f 198 246 247
f 198 247 199
f 199 247 216
f 199 216 215
f 199 215 248
f 199 248 249
f 199 249 200
f 200 249 201
f 201 213 229
f 201 229 228
f 201 249 248
f 201 248 215
f 203 227 226
f 203 226 225
f 203 225 224
f 203 224 204
f 204 224 223
f 204 223 222
f 204 222 221
f 204 221 245
f 208 250 210
f 208 210 209
f 208 239 250
f 210 250 214
f 211 214 251
f 211 251 252
f 211 252 212
f 212 252 213
f 213 252 253
f 213 253 230
f 214 250 254
f 214 254 251
f 216 247 246
f 216 246 218
f 216 218 217
f 218 255 256
f 218 256 257
f 218 257 219
f 218 246 255
f 219 257 258
f 219 258 220
f 220 258 221
f 221 258 245
f 230 253 259
f 230 259 231
f 231 259 234
f 232 234 260
f 232 260 233
f 233 260 261
f 233 261 262
f 233 262 235
f 234 259 253
f 234 253 260
f 235 262 263
f 235 263 236
f 236 263 237
f 237 263 264
f 237 264 239
f 237 239 238
f 239 264 250
f 240 243 265
f 240 265 256
f 240 256 241
f 241 256 255
f 241 255 246
f 242 244 265
f 242 265 243
f 244 245 258
f 244 258 257
f 244 257 265
f 250 264 254
f 251 260 252
f 251 254 261
f 251 261 260
f 252 260 253
f 254 264 263
f 254 263 261
f 256 265 257
f 261 263 262

