# https://github.com/mikedh/trimesh
v 0.47073900 -0.24053683 -0.00498175
v 0.46521190 -0.23747755 0.02500274
v 0.46521190 -0.23752661 0.03499757
v 0.47066041 -0.24064897 0.02500274
v 0.47064076 -0.24069102 0.03499757
v 0.47073900 -0.24223467 -0.00498175
v 0.47062112 -0.24077513 -0.12501491
v 0.46521190 -0.23759494 -0.14503630
v 0.46521190 -0.23738468 -0.00498175
v 0.45521205 -0.23516293 0.14503590
v 0.46521190 -0.23815563 0.14503590
v 0.47064076 -0.24212429 0.03499757
v 0.47030676 -0.24135685 0.14503590
v 0.46521190 -0.24439160 0.14503590
v 0.46521190 -0.24455631 -0.00498175
v 0.46521190 -0.24462114 -0.12501491
v 0.46521190 -0.24462990 -0.14503630
v 0.47072588 -0.24222943 -0.01497658
v 0.47062112 -0.24213481 -0.12501491
v 0.47058838 -0.24082593 -0.14503630
v 0.47047705 -0.24102569 -0.15112838
v 0.46485172 -0.23960994 -0.15468209
v 0.45521205 -0.23513140 -0.14503630
v 0.40384412 -0.22920731 0.15477688
v 0.45521205 -0.23740396 0.15506244
v 0.46490410 -0.23978690 0.15417401
v 0.47026093 -0.24143394 0.15027127
v 0.47030676 -0.24167924 0.14503590
v 0.47026093 -0.24161267 0.15027127
v 0.46490410 -0.24303192 0.15417401
v 0.45521205 -0.24689369 0.14503590
v 0.45521205 -0.24658357 -0.14503630
v 0.46485172 -0.24302141 -0.15468209
v 0.47047705 -0.24192629 -0.15112838
v 0.47058838 -0.24209100 -0.14503630
v 0.46127612 -0.24101868 -0.16029824
v 0.45521205 -0.23756866 -0.15503112
v 0.40384412 -0.23064233 -0.15795024
v 0.40384412 -0.23002032 -0.15531671
v 0.40384412 -0.23459698 0.16156702
v 0.46136127 -0.24085924 0.16042475
v 0.46136127 -0.24211203 0.16042475
v 0.45521205 -0.24506092 0.15506244
v 0.40384412 -0.24701985 0.15512591
v 0.40384412 -0.24710746 0.14503590
v 0.40384412 -0.24694802 -0.14640068
v 0.40384412 -0.24601937 -0.15503112
v 0.45521205 -0.24461237 -0.15503112
v 0.46127612 -0.24191578 -0.16029824
v 0.40384412 -0.23726203 -0.16201165
v 0.40384412 -0.23633512 -0.16194818
v 0.40384412 -0.23482652 -0.16147223
v 0.40384412 -0.23719369 0.16207469
v 0.45521205 -0.24232930 0.16055167
v 0.40384412 -0.24411650 0.16153529
v 0.40384412 -0.24560935 -0.15614166
v 0.40384412 -0.24332628 -0.16153570
v 0.40384412 -0.24215058 -0.16188473
f 1 2 3
f 1 3 4
f 1 4 5
f 1 5 12
f 1 12 6
f 1 6 19
f 1 19 7
f 1 7 8
f 1 8 9
f 1 9 2
f 2 10 3
f 2 9 10
f 3 5 4
f 3 10 11
f 3 11 5
f 5 11 13
f 5 13 28
f 5 28 12
f 6 12 14
f 6 14 15
f 6 15 16
f 6 16 17
f 6 17 18
f 6 18 19
f 7 19 35
f 7 35 20
f 7 20 8
f 8 20 21
f 8 21 22
f 8 22 23
f 8 23 9
f 9 23 10
f 10 24 25
f 10 25 26
f 10 26 11
f 10 23 24
f 11 26 27
f 11 27 13
f 12 28 14
f 13 27 29
f 13 29 28
f 14 28 29
f 14 29 30
f 14 30 31
f 14 31 15
f 15 31 16
f 16 31 17
f 17 32 33
f 17 33 34
f 17 34 35
f 17 35 19
f 17 19 18
f 17 31 32
f 20 35 34
f 20 34 21
f 21 34 49
f 21 49 36
f 21 36 22
f 22 37 23
f 22 36 37
f 23 37 38
f 23 38 39
f 23 39 24
f 24 40 41
f 24 41 25
f 24 39 38
f 24 38 52
f 24 52 51
f 24 51 50
f 24 50 58
f 24 58 57
f 24 57 56
f 24 56 47
f 24 47 46
f 24 46 45
f 24 45 44
f 24 44 55
f 24 55 53
f 24 53 40
f 25 41 26
f 26 41 27
f 27 41 42
f 27 42 29
f 29 42 30
f 30 43 31
f 30 42 43
f 31 43 44
f 31 44 45
f 31 45 46
f 31 46 32
f 32 46 47
f 32 47 48
f 32 48 33
f 33 48 49
f 33 49 34
f 36 49 50
f 36 50 51
f 36 51 52
f 36 52 38
f 36 38 37
f 40 53 41
f 41 53 42
f 42 53 54
f 42 54 43
f 43 54 55
f 43 55 44
f 47 56 48
f 48 56 57
f 48 57 49
f 49 57 58
f 49 58 50
f 53 55 54

