# https://github.com/mikedh/trimesh
v 0.36945784 0.01026599 -0.13983146
v 0.36951941 0.01026599 -0.14421277
v 0.37732424 0.01026599 -0.13683435
v 0.38518652 0.19672244 -0.13537888
v 0.37962749 0.19672244 -0.13969779
v 0.37862571 0.19672244 -0.14308996
v 0.37676997 0.19672244 -0.15197435
v 0.37472947 0.01026599 -0.15501897
v 0.37693418 0.19672244 -0.15505461
v 0.37776355 0.19672244 -0.16003296
v 0.37862163 0.19672244 -0.16226965
v 0.38518652 0.01026599 -0.13616899
v 0.39370164 0.19672244 -0.13581255
v 0.39531514 0.01026599 -0.13659375
v 0.37875710 0.01026599 -0.16213301
v 0.38518652 0.19672244 -0.16559351
v 0.38518652 0.01026599 -0.16572420
v 0.39469108 0.19672244 -0.13633831
v 0.40518921 0.01026599 -0.14057109
v 0.39589404 0.19672244 -0.16297958
v 0.39501134 0.18363617 -0.16332711
v 0.39518787 0.01026599 -0.16412019
v 0.38849158 0.01026599 -0.16529349
v 0.39789760 0.19672244 -0.14513357
v 0.40940980 0.01026599 -0.14505337
v 0.39861609 0.19672244 -0.16110230
v 0.40054574 0.01026599 -0.16053198
v 0.39704772 0.01026599 -0.16292611
v 0.40047592 0.19672244 -0.15585663
v 0.41139694 0.01026599 -0.15169216
v 0.40007769 0.19672244 -0.15822104
f 1 2 8
f 1 8 15
f 1 15 17
f 1 17 23
f 1 23 22
f 1 22 28
f 1 28 27
f 1 27 30
f 1 30 25
f 1 25 19
f 1 19 14
f 1 14 12
f 1 12 3
f 1 3 4
f 1 4 5
f 1 5 6
f 1 6 7
f 1 7 2
f 2 7 9
f 2 9 10
f 2 10 11
f 2 11 8
f 3 12 4
f 4 13 18
f 4 18 24
f 4 24 29
f 4 29 31
f 4 31 26
f 4 26 20
f 4 20 16
f 4 16 11
f 4 11 10
f 4 10 9
f 4 9 7
f 4 7 6
f 4 6 5
f 4 12 14
f 4 14 13
f 8 11 15
f 11 16 17
f 11 17 15
f 13 14 19
f 13 19 18
f 16 20 21
f 16 21 22
f 16 22 23
f 16 23 17
f 18 19 25
f 18 25 24
f 20 26 27
f 20 27 28
f 20 28 22
f 20 22 21
f 24 25 30
f 24 30 29
f 26 31 30
f 26 30 27
f 29 30 31

