# https://github.com/mikedh/trimesh
v 0.38515593 0.00355650 -0.16575962
v -0.38505284 -0.01644667 -0.16420492
v 0.38515593 0.01026599 -0.16569483
v 0.39512785 -0.00644508 -0.16469077
v 0.38515593 -0.02643686 -0.16572722
v -0.38505284 -0.02643686 -0.16426971
v -0.38505284 0.01026599 -0.16394581
v -0.39492605 0.01026599 -0.16388104
v -0.39166788 0.01026599 -0.16391341
v 0.38841410 0.01026599 -0.16527377
v 0.47519956 -0.00644508 -0.15384033
v 0.47519956 -0.01644667 -0.15384033
v 0.39512785 -0.01644667 -0.16462598
v -0.38505284 -0.04792090 -0.16397820
v -0.38505284 -0.03644414 -0.16414015
v -0.38505284 -0.02954099 -0.16423731
v 0.38515593 -0.04617233 -0.16537093
v -0.39502476 -0.04792090 -0.16362191
v -0.39196408 -0.02954099 -0.16391341
v -0.39492605 -0.01644667 -0.16384864
v -0.39492605 0.00355650 -0.16391341
v -0.47509647 -0.00644508 -0.15251237
v -0.48190897 0.00108458 -0.15073096
v -0.47509647 0.00783394 -0.14875520
v -0.48506839 0.00896738 -0.14185627
v -0.48506839 0.00946859 -0.13502212
v -0.40055377 0.01026599 -0.16077166
v 0.39512785 0.01026599 -0.16410776
v 0.48280193 0.00173388 -0.15118440
v 0.48438165 -0.00644508 -0.15179980
v 0.48290067 -0.02256381 -0.15111963
v 0.39483168 -0.04617233 -0.16365430
v 0.48438165 -0.01644667 -0.15176741
v 0.39512785 -0.04617233 -0.16358953
v -0.37952383 -0.04792090 -0.16090122
v -0.40035631 -0.04792090 -0.16054492
v -0.48190897 -0.02232459 -0.15073096
v -0.47509647 -0.01644667 -0.15254475
v -0.39492605 -0.02643686 -0.16378386
v -0.48289629 -0.00644508 -0.15108724
v -0.48783290 -0.00644508 -0.14894954
v -0.49227584 0.00355650 -0.14221256
v -0.48516714 0.00407480 -0.14700617
v -0.49049865 0.00876233 -0.14043114
v -0.48506839 0.00955973 -0.12501381
v -0.49138726 0.00897307 -0.13502212
v -0.49276950 0.00910407 -0.12501381
v -0.40440431 0.01026599 -0.15490918
v 0.39700378 0.01026599 -0.16290935
v 0.48517148 0.00881929 -0.14224495
v 0.47194140 0.00863133 -0.15011555
v 0.47865518 0.00839781 -0.14930582
v 0.47519956 0.00446211 -0.15157308
v 0.48576389 0.00446211 -0.14755679
v 0.48931825 -0.00644508 -0.14956493
v 0.48941697 -0.01644667 -0.14950016
v 0.40006445 -0.04617233 -0.16018865
v 0.49267513 -0.02276316 -0.14289274
v -0.37903017 -0.04792090 -0.15503874
v 0.40016320 -0.04617233 -0.16009148
v -0.40075123 -0.04792090 -0.15503874
v -0.49504034 -0.02587299 -0.12501381
v -0.49553400 -0.02415859 -0.13531363
v -0.49257204 -0.02311629 -0.14253644
v -0.48289629 -0.01644667 -0.15108724
v -0.48793164 -0.01644667 -0.14891715
v -0.49405302 -0.01644667 -0.14392919
v -0.49395428 -0.00644508 -0.14392919
v -0.49898962 -0.00644508 -0.13816389
v -0.50106298 0.00066880 -0.13194514
v -0.49780485 0.00729285 -0.12501381
v -0.48506839 0.00954833 -0.11503789
v -0.41042697 0.01026599 0.14268414
v -0.41141429 0.01026599 -0.13900600
v -0.41111809 0.01026599 -0.14457697
v -0.49346062 0.00910977 -0.11503789
v -0.49355936 0.00910977 -0.10502958
v -0.49355936 0.00909838 -0.09502128
v -0.49849596 0.00790798 -0.11503789
v 0.40045940 0.01026599 -0.16051253
v 0.48517148 0.00908699 -0.13502212
v 0.49050303 0.00870538 -0.14039875
v 0.49247767 0.00355650 -0.14250407
v 0.49455103 -0.00644508 -0.14457697
v 0.49435357 -0.01644667 -0.14451220
v 0.49938892 -0.01644667 -0.13890884
v 0.50116610 -0.02236446 -0.13230142
v 0.49573584 -0.02352068 -0.13537840
v -0.37824031 -0.04792090 0.15502447
v 0.40055811 -0.04617233 0.15476535
v 0.50185719 -0.02291124 -0.12501381
v 0.49514343 -0.02465981 -0.12501381
v 0.49514343 -0.02493890 0.11502363
v -0.40065248 -0.04792090 0.15502447
v -0.49504034 -0.02602677 -0.10502958
v -0.49504034 -0.02602677 -0.11503789
v -0.50195156 -0.02349790 -0.11503789
v -0.50185287 -0.02333842 -0.12501381
v -0.50116172 -0.02259798 -0.13217186
v -0.49898962 -0.01644667 -0.13835822
v -0.50155664 -0.00644508 -0.13317594
v -0.50353128 -0.00644508 -0.12501381
v -0.50165538 0.00229206 -0.12501381
v -0.48506839 0.00953125 -0.10502958
v -0.49247330 0.00895598 0.03498956
v -0.48506839 0.00921798 0.03498956
v -0.48506839 0.00918951 0.04499787
v -0.48506839 0.00893890 0.12503194
v -0.40203475 0.01026599 0.15865209
v -0.49849596 0.00797633 -0.10502958
v -0.49849596 0.00798203 -0.09502128
v -0.50195156 0.00290719 -0.11503789
v 0.41131993 0.01026599 -0.15167025
v 0.48517148 0.00897307 0.10501532
v 0.49188527 0.00882498 0.10501532
v 0.49218147 0.00883068 -0.02499551
v 0.49218147 0.00884207 -0.12501381
v 0.49129289 0.00881929 -0.13502212
v 0.41013515 0.01026599 0.14239263
v 0.49711807 0.00741246 -0.12501381
v 0.50116610 0.00086245 -0.13230142
v 0.49958638 -0.00644508 -0.13890884
v 0.50195593 -0.01644667 -0.13388849
v 0.50402932 -0.01644667 -0.12501381
v -0.37833905 -0.04792090 0.15596376
v 0.40045940 -0.04617233 0.16030393
v 0.50432549 -0.01644667 -0.11503789
v 0.50195593 -0.02293972 -0.11503789
v 0.50205468 -0.02316755 0.11502363
v 0.49514343 -0.02471677 0.12503194
v -0.40045502 -0.04792090 0.16069260
v -0.49504034 -0.02574199 0.11502363
v -0.50195156 -0.02346942 -0.08501297
v -0.50195156 -0.02349220 -0.10502958
v -0.50412368 -0.01644667 -0.11503789
v -0.50353128 -0.01644667 -0.12501381
v -0.50155664 -0.01644667 -0.13333787
v -0.50402494 -0.00644508 -0.11503789
v -0.49237458 0.00893890 0.04499787
v -0.49178218 0.00881359 0.11502363
v -0.49197964 0.00881929 0.10501532
v -0.49128852 0.00879081 0.12503194
v -0.49059740 0.00870538 0.13277299
v -0.48566080 0.00877372 0.13568803
v -0.40035631 0.01026599 0.16066022
v -0.50195156 0.00297554 -0.10502958
v -0.49701498 0.00753777 0.10501532
v -0.49701498 0.00758333 0.09503941
v -0.50195156 0.00297554 -0.09502128
v -0.50185287 0.00258254 0.09503941
v 0.48517148 0.00896168 0.11502363
v 0.49247767 0.00882498 -0.11503789
v 0.49178655 0.00881359 0.11502363
v 0.49692062 0.00744094 0.10501532
v 0.49751299 0.00784533 -0.09502128
v 0.49751299 0.00781685 -0.11503789
v 0.40055811 0.01026599 0.16069260
v 0.48517148 0.00892181 0.12503194
v 0.50185719 0.00240597 -0.12501381
v 0.50185719 -0.00644508 -0.13388849
v 0.50402932 -0.00644508 -0.12501381
v 0.50442423 -0.00644508 -0.11503789
v -0.37912892 -0.04792090 0.16137278
v 0.40036066 -0.04617233 0.16043349
v 0.49534089 -0.02333842 0.13497547
v 0.50452298 -0.01644667 0.10501532
v 0.50432549 -0.01644667 0.11502363
v 0.50165976 -0.02290555 0.12503194
v 0.50096861 -0.02222776 0.13160698
v -0.39502476 -0.04792090 0.16402871
v -0.49227584 -0.02301946 0.14210113
v -0.49543526 -0.02391938 0.13491069
v -0.49504034 -0.02551416 0.12503194
v -0.50165538 -0.02329855 0.11502363
v -0.50185287 -0.02332703 0.03498956
v -0.50195156 -0.02344094 -0.07500466
v -0.50363002 -0.01644667 0.09503941
v -0.50363002 -0.00644508 0.09503941
v -0.50402494 -0.00644508 -0.08501297
v -0.49681752 0.00736689 0.11502363
v -0.49632386 0.00646128 0.12503194
v -0.48931388 0.00850033 0.13944520
v -0.48269883 0.00867120 0.14051405
v -0.39690069 0.01026599 0.16295987
v -0.50165538 0.00236610 0.11502363
v -0.50195156 0.00294706 -0.08501297
v -0.50343254 -0.00644508 0.11502363
v 0.49751299 0.00783394 -0.10502958
v 0.49119415 0.00878511 0.12503194
v 0.49672316 0.00727576 0.11502363
v 0.50185719 0.00227497 0.11502363
v 0.50195593 0.00243445 0.10501532
v 0.50195593 0.00283315 -0.08501297
v 0.50195593 0.00283884 -0.09502128
v 0.50195593 0.00283315 -0.10502958
v 0.50195593 0.00281606 -0.11503789
v 0.48201206 0.00867120 0.14041687
v 0.48527023 0.00876233 0.13526697
v 0.49060175 0.00869968 0.13209282
v 0.39512785 0.01026599 0.16396393
v 0.50442423 -0.00644508 0.09503941
v -0.38505284 -0.04792090 0.16470889
v 0.39532534 -0.04617233 0.16357526
v 0.49218147 -0.02258659 0.14184201
v 0.50422681 -0.00644508 0.11502363
v 0.50353566 -0.01644667 0.12503194
v 0.50146227 -0.01644667 0.13257865
v 0.49840160 -0.01644667 0.13759900
v -0.39492605 -0.01644667 0.16415827
v -0.48121785 -0.01644667 0.15048997
v -0.48092165 -0.02189741 0.15036041
v -0.38653382 -0.04792090 0.16461171
v -0.38505284 -0.02643686 0.16506517
v -0.38505284 -0.01644667 0.16512995
v -0.48635191 -0.01644667 0.14825509
v -0.49346062 -0.01644667 0.14323476
v -0.49839722 -0.01644667 0.13727512
v -0.50066806 -0.02227333 0.13144503
v -0.50135921 -0.02299668 0.12503194
v -0.50353128 -0.01644667 0.11502363
v -0.50135921 0.00146049 0.12503194
v -0.50056932 -0.00002607 0.13128308
v -0.49227584 0.00183071 0.14213352
v -0.48072419 -0.00049881 0.15029562
v -0.39492605 0.01026599 0.16409349
v -0.50284019 -0.01644667 0.12503194
v -0.50264270 -0.00644508 0.12503194
v 0.50146227 0.00138075 0.12503194
v 0.49622950 0.00638724 0.12503194
v 0.48872585 0.00839781 0.13876503
v 0.39186972 0.01026599 0.16399632
v 0.38515593 -0.00644508 0.16419066
v 0.38515593 -0.01644667 0.16422304
v 0.39512785 0.00355650 0.16396393
v 0.48062983 -0.01644667 0.15019846
v 0.48043237 -0.00644508 0.15013369
v 0.48023488 -0.00135316 0.15006890
v 0.48448036 0.00352802 0.14459510
v 0.39512785 -0.04617233 0.16364004
v 0.38545213 -0.04617233 0.16380198
v 0.38515593 -0.02643686 0.16415827
v 0.48053108 -0.02157276 0.15016607
v 0.49346499 -0.01644667 0.14304042
v 0.50323949 -0.00644508 0.12503194
v 0.50136353 -0.00644508 0.13244909
v 0.49859905 -0.00644508 0.13743705
v 0.49366245 -0.00644508 0.14323476
v -0.48121785 -0.00644508 0.15042518
v -0.38505284 -0.00644508 0.16509756
v -0.49346062 -0.00644508 0.14326714
v -0.48615446 -0.00644508 0.14825509
v -0.50116172 -0.01644667 0.13225477
v -0.49839722 -0.00644508 0.13714556
v -0.50106298 -0.00644508 0.13212521
v -0.38505284 0.00355650 0.16496800
v -0.38505284 0.01026599 0.16487084
v 0.50077118 -0.00006594 0.13141264
v 0.49484723 0.00417163 0.13507264
v 0.49237893 0.00173388 0.14210113
v 0.38515593 0.00355650 0.16409349
v 0.48566514 -0.01644667 0.14802837
v 0.48546768 -0.00644508 0.14822272
f 1 2 3
f 1 3 4
f 1 4 5
f 1 5 6
f 1 6 2
f 2 7 3
f 2 6 8
f 2 8 9
f 2 9 7
f 3 7 9
f 3 9 8
f 3 8 27
f 3 27 48
f 3 48 75
f 3 75 74
f 3 74 73
f 3 73 109
f 3 109 145
f 3 145 184
f 3 184 225
f 3 225 256
f 3 256 231
f 3 231 200
f 3 200 157
f 3 157 119
f 3 119 113
f 3 113 80
f 3 80 49
f 3 49 28
f 3 28 10
f 3 10 4
f 4 10 11
f 4 11 12
f 4 12 13
f 4 13 5
f 5 14 15
f 5 15 16
f 5 16 6
f 5 13 17
f 5 17 14
f 6 18 19
f 6 19 20
f 6 20 21
f 6 21 8
f 6 16 18
f 8 21 22
f 8 22 23
f 8 23 24
f 8 24 25
f 8 25 26
f 8 26 27
f 10 28 29
f 10 29 11
f 11 29 30
f 11 30 12
f 12 31 32
f 12 32 17
f 12 17 13
f 12 30 33
f 12 33 31
f 14 17 32
f 14 32 34
f 14 34 35
f 14 35 59
f 14 59 89
f 14 89 125
f 14 125 163
f 14 163 202
f 14 202 212
f 14 212 170
f 14 170 131
f 14 131 94
f 14 94 61
f 14 61 36
f 14 36 18
f 14 18 15
f 15 18 16
f 18 36 37
f 18 37 38
f 18 38 39
f 18 39 19
f 19 39 20
f 20 39 38
f 20 38 21
f 21 38 22
f 22 38 40
f 22 40 23
f 23 40 41
f 23 41 42
f 23 42 43
f 23 43 24
f 24 43 44
f 24 44 25
f 25 44 26
f 26 45 27
f 26 44 46
f 26 46 47
f 26 47 45
f 27 45 48
f 28 49 50
f 28 50 51
f 28 51 52
f 28 52 53
f 28 53 29
f 29 53 52
f 29 52 54
f 29 54 55
f 29 55 30
f 30 55 56
f 30 56 33
f 31 57 34
f 31 34 32
f 31 33 56
f 31 56 58
f 31 58 57
f 34 57 35
f 35 57 60
f 35 60 59
f 36 61 62
f 36 62 63
f 36 63 64
f 36 64 37
f 37 65 38
f 37 64 66
f 37 66 65
f 38 65 40
f 40 65 66
f 40 66 41
f 41 66 67
f 41 67 68
f 41 68 42
f 42 44 43
f 42 68 69
f 42 69 70
f 42 70 44
f 44 70 71
f 44 71 46
f 45 72 73
f 45 73 74
f 45 74 75
f 45 75 48
f 45 47 76
f 45 76 77
f 45 77 78
f 45 78 72
f 46 71 79
f 46 79 47
f 47 79 76
f 49 80 81
f 49 81 50
f 50 81 82
f 50 82 52
f 50 52 51
f 52 82 54
f 54 82 83
f 54 83 55
f 55 83 84
f 55 84 56
f 56 84 85
f 56 85 58
f 57 58 60
f 58 85 86
f 58 86 87
f 58 87 88
f 58 88 60
f 59 60 89
f 60 90 89
f 60 88 91
f 60 91 92
f 60 92 93
f 60 93 90
f 61 94 95
f 61 95 96
f 61 96 62
f 62 96 97
f 62 97 98
f 62 98 99
f 62 99 63
f 63 99 64
f 64 99 100
f 64 100 67
f 64 67 66
f 67 100 68
f 68 100 69
f 69 100 101
f 69 101 70
f 70 101 102
f 70 102 103
f 70 103 71
f 71 103 79
f 72 104 73
f 72 78 105
f 72 105 104
f 73 104 106
f 73 106 107
f 73 107 108
f 73 108 109
f 76 79 110
f 76 110 77
f 77 110 111
f 77 111 78
f 78 111 105
f 79 103 112
f 79 112 146
f 79 146 110
f 80 113 81
f 81 114 115
f 81 115 116
f 81 116 117
f 81 117 118
f 81 118 82
f 81 113 119
f 81 119 114
f 82 118 120
f 82 120 121
f 82 121 83
f 83 121 122
f 83 122 84
f 84 122 86
f 84 86 85
f 86 122 123
f 86 123 87
f 87 123 124
f 87 124 91
f 87 91 88
f 89 90 126
f 89 126 125
f 90 93 126
f 91 124 127
f 91 127 128
f 91 128 92
f 92 128 93
f 93 128 129
f 93 129 130
f 93 130 126
f 94 131 132
f 94 132 95
f 95 132 133
f 95 133 134
f 95 134 97
f 95 97 96
f 97 134 135
f 97 135 98
f 98 135 136
f 98 136 99
f 99 136 137
f 99 137 100
f 100 137 101
f 101 137 102
f 102 136 135
f 102 135 138
f 102 138 103
f 102 137 136
f 103 138 112
f 104 105 139
f 104 139 140
f 104 140 106
f 105 111 141
f 105 141 140
f 105 140 139
f 106 140 107
f 107 140 108
f 108 140 142
f 108 142 143
f 108 143 144
f 108 144 109
f 109 144 145
f 110 146 111
f 111 147 148
f 111 148 141
f 111 146 149
f 111 149 150
f 111 150 147
f 112 138 146
f 114 151 115
f 114 119 151
f 115 152 116
f 115 151 153
f 115 153 154
f 115 154 155
f 115 155 152
f 116 152 117
f 117 152 156
f 117 156 118
f 118 156 120
f 119 157 158
f 119 158 151
f 120 156 159
f 120 159 121
f 121 160 122
f 121 159 161
f 121 161 160
f 122 160 123
f 123 161 124
f 123 160 161
f 124 161 162
f 124 162 127
f 125 126 163
f 126 164 163
f 126 130 165
f 126 165 164
f 127 162 166
f 127 166 128
f 128 166 129
f 129 166 167
f 129 167 168
f 129 168 130
f 130 168 169
f 130 169 165
f 131 170 171
f 131 171 172
f 131 172 173
f 131 173 132
f 132 173 174
f 132 174 133
f 133 174 175
f 133 175 176
f 133 176 135
f 133 135 134
f 135 176 175
f 135 175 177
f 135 177 178
f 135 178 179
f 135 179 138
f 138 179 149
f 138 149 146
f 140 141 147
f 140 147 142
f 141 148 147
f 142 147 180
f 142 180 143
f 143 180 181
f 143 181 182
f 143 182 144
f 144 183 145
f 144 182 183
f 145 183 184
f 147 150 185
f 147 185 180
f 149 179 186
f 149 186 150
f 150 186 179
f 150 179 178
f 150 178 187
f 150 187 185
f 151 158 153
f 152 155 188
f 152 188 156
f 153 158 189
f 153 189 154
f 154 189 190
f 154 190 191
f 154 191 192
f 154 192 155
f 155 192 193
f 155 193 194
f 155 194 195
f 155 195 188
f 156 188 195
f 156 195 196
f 156 196 159
f 157 197 198
f 157 198 199
f 157 199 158
f 157 200 197
f 158 199 189
f 159 196 162
f 159 162 161
f 162 196 195
f 162 195 194
f 162 194 201
f 162 201 166
f 163 164 203
f 163 203 202
f 164 165 204
f 164 204 203
f 165 169 204
f 166 201 205
f 166 205 167
f 167 206 168
f 167 205 206
f 168 206 169
f 169 206 207
f 169 207 208
f 169 208 204
f 170 209 210
f 170 210 211
f 170 211 171
f 170 212 213
f 170 213 214
f 170 214 209
f 171 215 216
f 171 216 217
f 171 217 218
f 171 218 172
f 171 211 215
f 172 218 219
f 172 219 173
f 173 219 174
f 174 219 220
f 174 220 177
f 174 177 175
f 177 220 178
f 178 220 187
f 180 185 221
f 180 221 181
f 181 221 182
f 182 221 222
f 182 222 223
f 182 223 224
f 182 224 225
f 182 225 183
f 183 225 184
f 185 187 221
f 187 220 226
f 187 226 227
f 187 227 221
f 189 199 190
f 190 228 191
f 190 199 229
f 190 229 228
f 191 205 192
f 191 228 205
f 192 205 201
f 192 201 193
f 193 201 194
f 197 200 230
f 197 230 199
f 197 199 198
f 199 230 229
f 200 231 232
f 200 232 233
f 200 233 234
f 200 234 235
f 200 235 236
f 200 236 237
f 200 237 238
f 200 238 230
f 202 203 239
f 202 239 240
f 202 240 241
f 202 241 213
f 202 213 212
f 203 204 242
f 203 242 239
f 204 208 243
f 204 243 242
f 205 244 206
f 205 228 244
f 206 244 245
f 206 245 207
f 207 245 246
f 207 246 208
f 208 246 247
f 208 247 243
f 209 225 210
f 209 214 225
f 210 215 211
f 210 225 248
f 210 248 215
f 213 241 233
f 213 233 214
f 214 249 225
f 214 233 232
f 214 232 249
f 215 250 216
f 215 248 251
f 215 251 250
f 216 250 217
f 217 252 218
f 217 250 253
f 217 253 252
f 218 252 226
f 218 226 219
f 219 226 220
f 221 227 222
f 222 227 254
f 222 254 253
f 222 253 223
f 223 253 250
f 223 250 251
f 223 251 224
f 224 251 248
f 224 248 225
f 225 249 255
f 225 255 256
f 226 252 254
f 226 254 227
f 228 229 257
f 228 257 244
f 229 230 258
f 229 258 257
f 230 238 259
f 230 259 258
f 231 260 232
f 231 256 255
f 231 255 260
f 232 260 249
f 233 241 234
f 234 241 239
f 234 239 235
f 235 239 242
f 235 242 261
f 235 261 262
f 235 262 236
f 236 262 237
f 237 262 259
f 237 259 238
f 239 241 240
f 242 243 261
f 243 247 261
f 244 257 245
f 245 257 246
f 246 257 259
f 246 259 247
f 247 259 262
f 247 262 261
f 249 260 255
f 252 253 254
f 257 258 259

