# https://github.com/mikedh/trimesh
v 0.37456713 0.01026599 0.14553212
v 0.37536614 0.01026599 0.13888899
v 0.37479044 0.01026599 0.15041679
v 0.37877511 0.19672244 0.15506358
v 0.37901240 0.19672244 0.14670727
v 0.38518831 0.01026599 0.13605732
v 0.38430203 0.19672244 0.13556743
v 0.37808775 0.01026599 0.15869663
v 0.37959508 0.19672244 0.16091384
v 0.39414858 0.01026599 0.13606580
v 0.38555118 0.19672244 0.13523046
v 0.39518837 0.19672244 0.13514835
v 0.37969976 0.01026599 0.16075526
v 0.37957415 0.08360017 0.16093933
v 0.37956369 0.09362019 0.16095347
v 0.37956369 0.10360372 0.16095631
v 0.37958113 0.15361259 0.16095064
v 0.38518831 0.16361437 0.16405984
v 0.38518831 0.19672244 0.16385029
v 0.38518831 0.15361259 0.16407400
v 0.39518837 0.01026599 0.13608846
v 0.40035243 0.19672244 0.13999052
v 0.41021293 0.01026599 0.14208880
v 0.40283674 0.01026599 0.13887200
v 0.38334249 0.01026599 0.16294132
v 0.38518831 0.01026599 0.16401736
v 0.39518837 0.16361437 0.16357562
v 0.39518837 0.19672244 0.16346519
v 0.38826577 0.19672244 0.16374836
v 0.39518837 0.01358775 0.16397205
v 0.39518837 0.15361259 0.16360677
v 0.39188409 0.01026599 0.16401452
v 0.40094558 0.19672244 0.14342253
v 0.41021293 0.01026599 0.14240594
v 0.40113051 0.19672244 0.14578982
v 0.40152480 0.19672244 0.15198271
v 0.39684925 0.19672244 0.16257038
v 0.39518837 0.01026599 0.16397205
v 0.40063155 0.01026599 0.16071279
v 0.40049199 0.19672244 0.16052873
v 0.40100142 0.19672244 0.15881556
f 1 2 6
f 1 6 10
f 1 10 21
f 1 21 24
f 1 24 23
f 1 23 34
f 1 34 39
f 1 39 38
f 1 38 32
f 1 32 26
f 1 26 25
f 1 25 13
f 1 13 8
f 1 8 3
f 1 3 4
f 1 4 5
f 1 5 2
f 2 5 7
f 2 7 6
f 3 8 9
f 3 9 4
f 4 9 19
f 4 19 29
f 4 29 28
f 4 28 37
f 4 37 40
f 4 40 41
f 4 41 36
f 4 36 35
f 4 35 33
f 4 33 22
f 4 22 12
f 4 12 11
f 4 11 7
f 4 7 5
f 6 7 11
f 6 11 12
f 6 12 10
f 8 13 14
f 8 14 15
f 8 15 16
f 8 16 17
f 8 17 9
f 9 18 19
f 9 17 20
f 9 20 18
f 10 12 21
f 12 22 23
f 12 23 24
f 12 24 21
f 13 25 14
f 14 25 26
f 14 26 15
f 15 26 20
f 15 20 16
f 16 20 17
f 18 27 28
f 18 28 29
f 18 29 19
f 18 20 30
f 18 30 31
f 18 31 27
f 20 26 32
f 20 32 30
f 22 33 23
f 23 33 35
f 23 35 36
f 23 36 34
f 27 37 28
f 27 31 37
f 30 32 38
f 30 38 39
f 30 39 40
f 30 40 37
f 30 37 31
f 34 36 41
f 34 41 40
f 34 40 39

