# https://github.com/mikedh/trimesh
v -0.41155952 0.01026599 -0.13901571
v -0.41114859 0.01026599 -0.14460309
v -0.40361501 0.01026599 -0.13632611
v -0.39511844 0.18838252 -0.14516577
v -0.39749679 0.18838252 -0.14631926
v -0.40048534 0.18838252 -0.14802698
v -0.40068042 0.18838252 -0.15103168
v -0.40086720 0.18838252 -0.15505482
v -0.40073024 0.18838252 -0.15797512
v -0.40064720 0.01026599 -0.16079132
v -0.40052270 0.18838252 -0.16069285
v -0.39511844 0.01026599 -0.13525984
v -0.38476230 0.18838252 -0.14530643
v -0.39487354 0.01026599 -0.13525703
v -0.38511927 0.01026599 -0.13522888
v -0.39511844 0.01026599 -0.16390010
v -0.39771264 0.18838252 -0.16220926
v -0.37965689 0.18838252 -0.14885412
v -0.37508277 0.01026599 -0.13819702
v -0.39181442 0.01026599 -0.16392543
v -0.39511844 0.18838252 -0.16359063
v -0.38986357 0.18838252 -0.16372006
v -0.38511927 0.15361702 -0.16384946
v -0.37914636 0.18838252 -0.15505482
v -0.36915968 0.01026599 -0.14437239
v -0.38511927 0.01026599 -0.16396763
v -0.38511927 0.14360929 -0.16385790
v -0.38511927 0.18838252 -0.16373131
v -0.37947843 0.15361702 -0.16099951
v -0.37946182 0.14360929 -0.16101357
v -0.37935389 0.18838252 -0.15778380
v -0.37017246 0.01026599 -0.14710139
v -0.37960710 0.18838252 -0.16083352
v -0.38324730 0.01026599 -0.16293511
v -0.38221377 0.18838252 -0.16221490
v -0.37959050 0.18362274 -0.16085883
v -0.37269195 0.01026599 -0.15127081
v -0.37742794 0.01026599 -0.15861375
v -0.37952822 0.01026599 -0.16085883
f 1 2 10
f 1 10 16
f 1 16 20
f 1 20 26
f 1 26 34
f 1 34 39
f 1 39 38
f 1 38 37
f 1 37 32
f 1 32 25
f 1 25 19
f 1 19 15
f 1 15 14
f 1 14 12
f 1 12 3
f 1 3 4
f 1 4 5
f 1 5 6
f 1 6 7
f 1 7 8
f 1 8 9
f 1 9 2
f 2 9 11
f 2 11 10
f 3 12 4
f 4 13 18
f 4 18 24
f 4 24 31
f 4 31 33
f 4 33 35
f 4 35 28
f 4 28 22
f 4 22 21
f 4 21 17
f 4 17 11
f 4 11 9
f 4 9 8
f 4 8 7
f 4 7 6
f 4 6 5
f 4 12 14
f 4 14 15
f 4 15 13
f 10 11 16
f 11 17 16
f 13 15 19
f 13 19 18
f 16 17 21
f 16 21 22
f 16 22 23
f 16 23 20
f 18 19 25
f 18 25 24
f 20 23 27
f 20 27 26
f 22 28 23
f 23 28 29
f 23 29 30
f 23 30 27
f 24 25 31
f 25 32 33
f 25 33 31
f 26 27 30
f 26 30 34
f 28 35 29
f 29 35 36
f 29 36 32
f 29 32 37
f 29 37 38
f 29 38 30
f 30 38 39
f 30 39 34
f 32 36 33
f 33 36 35

