# https://github.com/mikedh/trimesh
v 0.36518401 -0.17927344 -0.11043780
v 0.34880676 -0.17927344 -0.11043780
v 0.40383757 -0.17931305 -0.11043780
v 0.38518151 -0.04619943 -0.14152316
v 0.34880676 -0.17925363 -0.11504628
v 0.34880676 -0.24631550 -0.11043780
v 0.37928248 -0.04619943 -0.14580401
v 0.37921242 -0.04619943 -0.14617532
v 0.37788179 -0.04619943 -0.15478071
v 0.40383757 -0.24653336 -0.11043780
v 0.40383757 -0.17618377 -0.15527759
v 0.40024429 -0.04619943 -0.15825345
v 0.40001264 -0.04619943 -0.15340472
v 0.39999108 -0.04619943 -0.15327368
v 0.39508328 -0.04619943 -0.14524707
v 0.38679230 -0.04619943 -0.14158869
v 0.34880676 -0.17927344 -0.13505273
v 0.34880676 -0.24631550 -0.14504504
v 0.38517612 -0.24849412 -0.15504826
v 0.39518026 -0.24651355 -0.11043780
v 0.37789255 -0.04619943 -0.15505374
v 0.34880676 -0.18044197 -0.15142810
v 0.34880676 -0.17933286 -0.14504504
v 0.39518026 -0.24821684 -0.15504826
v 0.40383757 -0.24692949 -0.14639919
v 0.40383757 -0.18218487 -0.15864114
v 0.40022274 -0.04619943 -0.16013179
v 0.34880676 -0.24405765 -0.15504826
v 0.38517612 -0.24544406 -0.16321684
v 0.37893229 -0.04619943 -0.16173165
v 0.34880676 -0.18264040 -0.15237273
v 0.37898079 -0.04619943 -0.16192276
v 0.39518026 -0.24518659 -0.16309126
v 0.40383757 -0.24560249 -0.15614032
v 0.40383757 -0.24599860 -0.15504826
v 0.40383757 -0.18650251 -0.15907250
v 0.39518566 -0.04619943 -0.16360998
v 0.40383757 -0.19161236 -0.15941104
v 0.40383757 -0.23724453 -0.16203743
v 0.34880676 -0.24164138 -0.16014270
v 0.38517612 -0.23651171 -0.16621453
v 0.34880676 -0.18650251 -0.15402719
v 0.38518151 -0.04619943 -0.16540095
v 0.34880676 -0.24132448 -0.16014270
v 0.34880676 -0.19648455 -0.15527759
v 0.34880676 -0.19010712 -0.15448040
v 0.39518026 -0.23651171 -0.16582139
v 0.40383757 -0.24330504 -0.16154053
v 0.40383757 -0.24213651 -0.16190638
f 1 2 6
f 1 6 20
f 1 20 10
f 1 10 3
f 1 3 4
f 1 4 2
f 2 5 17
f 2 17 23
f 2 23 22
f 2 22 31
f 2 31 42
f 2 42 46
f 2 46 45
f 2 45 44
f 2 44 40
f 2 40 28
f 2 28 18
f 2 18 6
f 2 4 7
f 2 7 8
f 2 8 9
f 2 9 5
f 3 10 25
f 3 25 35
f 3 35 34
f 3 34 48
f 3 48 49
f 3 49 39
f 3 39 38
f 3 38 36
f 3 36 26
f 3 26 11
f 3 11 12
f 3 12 13
f 3 13 14
f 3 14 15
f 3 15 16
f 3 16 4
f 4 16 15
f 4 15 14
f 4 14 13
f 4 13 12
f 4 12 27
f 4 27 37
f 4 37 43
f 4 43 32
f 4 32 30
f 4 30 21
f 4 21 9
f 4 9 8
f 4 8 7
f 5 9 17
f 6 18 19
f 6 19 20
f 9 21 22
f 9 22 23
f 9 23 17
f 10 20 19
f 10 19 24
f 10 24 25
f 11 26 27
f 11 27 12
f 18 28 19
f 19 28 29
f 19 29 24
f 21 30 22
f 22 30 32
f 22 32 31
f 24 29 33
f 24 33 34
f 24 34 35
f 24 35 25
f 26 36 27
f 27 36 38
f 27 38 39
f 27 39 37
f 28 40 29
f 29 40 41
f 29 41 33
f 31 32 42
f 32 43 44
f 32 44 45
f 32 45 46
f 32 46 42
f 33 41 47
f 33 47 48
f 33 48 34
f 37 39 47
f 37 47 43
f 39 49 47
f 40 44 41
f 41 43 47
f 41 44 43
f 47 49 48

