# https://github.com/mikedh/trimesh
v -0.40477665 -0.17630299 -0.14537413
v -0.40463137 -0.17630299 -0.15447171
v -0.39849753 -0.17630299 -0.14063616
v -0.39662005 -0.04792090 -0.14455627
v -0.40045762 -0.04792090 -0.14845287
v -0.40051459 -0.04792090 -0.14924723
v -0.40077385 -0.04792090 -0.15505455
v -0.40079949 -0.17630299 -0.16106397
v -0.40073110 -0.04792090 -0.15587946
v -0.40043767 -0.04792090 -0.16057278
v -0.40057443 -0.06646944 -0.16079371
v -0.40062854 -0.07647259 -0.16088771
v -0.40064849 -0.08647574 -0.16093002
v -0.39511864 -0.17630299 -0.14027188
v -0.39576251 -0.04792090 -0.14415439
v -0.39511864 -0.17630299 -0.16427904
v -0.39511864 -0.08647574 -0.16410981
v -0.39511864 -0.04792090 -0.16366329
v -0.39511864 -0.06646944 -0.16391004
v -0.39511864 -0.07647259 -0.16403932
v -0.38512159 -0.17630299 -0.14037293
v -0.38511876 -0.04792090 -0.14348693
v -0.38520993 -0.04792090 -0.14348929
v -0.38512159 -0.17630299 -0.16404401
v -0.38511876 -0.04792090 -0.16401345
v -0.37590233 -0.17630299 -0.14555745
v -0.37948919 -0.04792090 -0.14656333
v -0.37957180 -0.17630299 -0.16083130
v -0.37957750 -0.04792090 -0.16092061
v -0.37567157 -0.17630299 -0.14582302
v -0.37904475 -0.04792090 -0.15505455
v -0.37583110 -0.17630299 -0.15492764
v -0.37579977 -0.17630299 -0.15445760
f 1 2 8
f 1 8 16
f 1 16 24
f 1 24 28
f 1 28 32
f 1 32 33
f 1 33 30
f 1 30 26
f 1 26 21
f 1 21 14
f 1 14 3
f 1 3 4
f 1 4 5
f 1 5 6
f 1 6 7
f 1 7 2
f 2 7 9
f 2 9 10
f 2 10 11
f 2 11 12
f 2 12 13
f 2 13 8
f 3 14 15
f 3 15 4
f 4 15 23
f 4 23 22
f 4 22 27
f 4 27 31
f 4 31 29
f 4 29 25
f 4 25 18
f 4 18 10
f 4 10 9
f 4 9 7
f 4 7 6
f 4 6 5
f 8 13 17
f 8 17 16
f 10 18 11
f 11 18 19
f 11 19 20
f 11 20 12
f 12 20 17
f 12 17 13
f 14 21 22
f 14 22 23
f 14 23 15
f 16 17 25
f 16 25 24
f 17 20 25
f 18 25 19
f 19 25 20
f 21 26 27
f 21 27 22
f 24 25 29
f 24 29 28
f 26 30 27
f 27 30 31
f 28 29 32
f 29 31 32
f 30 33 31
f 31 33 32

