# https://github.com/mikedh/trimesh
v -0.41055031 0.01026599 0.14268444
v -0.40501394 0.01026599 0.13885520
v -0.40222165 0.01026599 0.15865628
v -0.40059047 0.18355283 0.16080396
v -0.40091186 0.18355283 0.15506439
v -0.40043779 0.18355283 0.14964799
v -0.39511835 0.01026599 0.13582098
v -0.39511835 0.18355283 0.14734015
v -0.40052216 0.01026599 0.16067813
v -0.40058242 0.03358915 0.16081254
v -0.40058644 0.04359691 0.16081825
v -0.39511835 0.18355283 0.16385533
v -0.39511835 0.03358915 0.16417849
v -0.38511831 0.01026599 0.13566082
v -0.39503397 0.18355283 0.14733442
v -0.38511831 0.18355283 0.14683683
v -0.39511835 0.01026599 0.16410413
v -0.39511835 0.02358140 0.16414989
v -0.38511831 0.15361437 0.16448448
v -0.38511831 0.16362212 0.16445589
v -0.38511831 0.17362988 0.16441585
v -0.38511831 0.18355283 0.16436151
v -0.38511831 0.01026599 0.16487342
v -0.37704677 0.01026599 0.13667891
v -0.37936498 0.18355283 0.14914467
v -0.36951360 0.01026599 0.13927558
v -0.37915205 0.11360031 0.16147886
v -0.37917212 0.12360807 0.16145599
v -0.37930070 0.18355283 0.16130728
v -0.37914400 0.01026599 0.16144740
v -0.37915205 0.10359255 0.16147886
v -0.37935693 0.18355283 0.14919614
v -0.36968235 0.01026599 0.14248425
v -0.37854537 0.18355283 0.15506439
f 1 2 7
f 1 7 14
f 1 14 24
f 1 24 26
f 1 26 33
f 1 33 30
f 1 30 23
f 1 23 17
f 1 17 9
f 1 9 3
f 1 3 4
f 1 4 5
f 1 5 6
f 1 6 2
f 2 6 8
f 2 8 7
f 3 9 10
f 3 10 11
f 3 11 4
f 4 12 22
f 4 22 29
f 4 29 34
f 4 34 32
f 4 32 25
f 4 25 16
f 4 16 15
f 4 15 8
f 4 8 6
f 4 6 5
f 4 11 13
f 4 13 12
f 7 8 15
f 7 15 16
f 7 16 14
f 9 17 10
f 10 17 18
f 10 18 13
f 10 13 11
f 12 19 20
f 12 20 21
f 12 21 22
f 12 13 23
f 12 23 19
f 13 18 23
f 14 16 24
f 16 25 26
f 16 26 24
f 17 23 18
f 19 27 20
f 19 23 27
f 20 27 28
f 20 28 29
f 20 29 21
f 21 29 22
f 23 30 31
f 23 31 27
f 25 32 26
f 26 32 34
f 26 34 33
f 27 31 33
f 27 33 28
f 28 33 29
f 29 33 34
f 30 33 31

