mtllib material.mtl
usemtl Material.004
v -0.37363800 -0.00168100 -0.04800000
v -0.36713800 -0.01293900 -0.04800000
v -0.36661800 -0.01359300 -0.04800000
v -0.36548300 -0.01437500 -0.04800000
v -0.36280800 -0.00706200 -0.04800000
v -0.36218800 -0.00768800 -0.04800000
v -0.36168800 -0.00794000 -0.04800000
v -0.36109200 -0.00805300 -0.04800000
v -0.35394200 -0.00805300 -0.04800000
v -0.35309000 -0.00782900 -0.04800000
v -0.35262200 -0.00752200 -0.04800000
v -0.34789600 -0.01293900 -0.04800000
v -0.35222600 -0.00706200 -0.04800000
v -0.34894700 -0.01402600 -0.04800000
v -0.35019000 -0.01461800 -0.04800000
v -0.36401700 -0.01474100 -0.04800000
v -0.35101700 -0.01474100 -0.04800000
v -0.34109100 -0.00090600 -0.04800000
v -0.34139600 -0.00168100 -0.04800000
v -0.34865100 -0.00087000 -0.04800000
v -0.34841900 -0.00002000 -0.04800000
v -0.34845100 0.00054000 -0.04800000
v -0.34865100 0.00111200 -0.04800000
v -0.35018000 0.00376200 -0.04800000
v -0.36485300 -0.00352000 -0.04800000
v -0.35950000 0.00465400 -0.04800000
v -0.36045100 0.00410300 -0.04800000
v -0.35458300 -0.00386300 -0.04800000
v -0.35553500 -0.00441200 -0.04800000
v -0.35069500 0.00465400 -0.04800000
v -0.34139600 0.00192300 -0.04800000
v -0.34789600 0.01318100 -0.04800000
v -0.35222600 0.00730300 -0.04800000
v -0.35993500 0.00454700 -0.04800000
v -0.36031900 0.00427600 -0.04800000
v -0.36638300 -0.00087000 -0.04800000
v -0.36661500 -0.00002000 -0.04800000
v -0.37394400 0.00114500 -0.04800000
v -0.36658300 0.00053900 -0.04800000
v -0.36638300 0.00111200 -0.04800000
v -0.37363800 0.00192300 -0.04800000
v -0.36713800 0.01318100 -0.04800000
v -0.36280800 0.00730300 -0.04800000
v -0.36218800 0.00793000 -0.04800000
v -0.36169000 0.00818100 -0.04800000
v -0.36608800 0.01426600 -0.04800000
v -0.36484000 0.01486000 -0.04800000
v -0.36401700 0.01498200 -0.04800000
v -0.34955100 0.01461500 -0.04800000
v -0.34841700 0.01383500 -0.04800000
v -0.35262000 0.00776100 -0.04800000
v -0.35309000 0.00807100 -0.04800000
v -0.35394200 0.00829500 -0.04800000
v -0.35101700 0.01498200 -0.04800000
v -0.36109200 0.00829500 -0.04800000
v -0.34098100 0.00047000 -0.04800000
v -0.37405300 -0.00022800 -0.04800000
v -0.36433800 -0.00441200 -0.04800000
v -0.35531400 -0.00438300 -0.04800000
v -0.35489400 -0.00418700 -0.04800000
vn -0.00000000 -0.00000000 -1.00000000
vn -0.00000000 -0.00000000 -1.00000000
vn -0.00000000 -0.00000000 -1.00000000
vn -0.00000000 -0.00000000 -1.00000000
vn -0.00000000 -0.00000000 -1.00000000
vn -0.00000000 -0.00000000 -1.00000000
vn -0.00000000 -0.00000000 -1.00000000
vn -0.00000000 -0.00000000 -1.00000000
vn -0.00000000 -0.00000000 -1.00000000
vn -0.00000000 -0.00000000 -1.00000000
vn -0.00000000 -0.00000000 -1.00000000
vn -0.00000000 -0.00000000 -1.00000000
vn -0.00000000 -0.00000000 -1.00000000
vn -0.00000000 -0.00000000 -1.00000000
vn -0.00000000 -0.00000000 -1.00000000
vn -0.00000000 -0.00000000 -1.00000000
vn -0.00000000 -0.00000000 -1.00000000
vn -0.00000000 -0.00000000 -1.00000000
vn -0.00000000 -0.00000000 -1.00000000
vn -0.00000000 -0.00000000 -1.00000000
vn -0.00000000 -0.00000000 -1.00000000
vn -0.00000000 -0.00000000 -1.00000000
vn -0.00000000 -0.00000000 -1.00000000
vn -0.00000000 -0.00000000 -1.00000000
vn -0.00000000 -0.00000000 -1.00000000
vn -0.00000000 -0.00000000 -1.00000000
vn -0.00000000 -0.00000000 -1.00000000
vn -0.00000000 -0.00000000 -1.00000000
vn -0.00000000 -0.00000000 -1.00000000
vn -0.00000000 -0.00000000 -1.00000000
vn -0.00000000 -0.00000000 -1.00000000
vn -0.00000000 -0.00000000 -1.00000000
vn -0.00000000 -0.00000000 -1.00000000
vn -0.00000000 -0.00000000 -1.00000000
vn -0.00000000 -0.00000000 -1.00000000
vn -0.00000000 -0.00000000 -1.00000000
vn -0.00000000 -0.00000000 -1.00000000
vn -0.00000000 -0.00000000 -1.00000000
vn -0.00000000 -0.00000000 -1.00000000
vn -0.00000000 -0.00000000 -1.00000000
vn -0.00000000 -0.00000000 -1.00000000
vn -0.00000000 -0.00000000 -1.00000000
vn -0.00000000 -0.00000000 -1.00000000
vn -0.00000000 -0.00000000 -1.00000000
vn -0.00000000 -0.00000000 -1.00000000
vn -0.00000000 -0.00000000 -1.00000000
vn -0.00000000 -0.00000000 -1.00000000
vn -0.00000000 -0.00000000 -1.00000000
vn -0.00000000 -0.00000000 -1.00000000
vn -0.00000000 -0.00000000 -1.00000000
vn -0.00000000 -0.00000000 -1.00000000
vn -0.00000000 -0.00000000 -1.00000000
vn -0.00000000 -0.00000000 -1.00000000
vn -0.00000000 -0.00000000 -1.00000000
vn -0.00000000 -0.00000000 -1.00000000
vn -0.00000000 -0.00000000 -1.00000000
vn -0.00000000 -0.00000000 -1.00000000
vn -0.00000000 -0.00000000 -1.00000000
vn -0.00000000 -0.00000000 -1.00000000
vn -0.00000000 -0.00000000 -1.00000000
f 2//2 5//5 3//3
f 3//3 6//6 4//4
f 3//3 5//5 6//6
f 4//4 6//6 7//7
f 14//14 10//10 11//11
f 12//12 11//11 13//13
f 14//14 11//11 12//12
f 15//15 10//10 14//14
f 19//19 20//20 18//18
f 19//19 13//13 20//20
f 12//12 13//13 19//19
f 18//18 20//20 21//21
f 18//18 21//21 22//22
f 22//22 23//23 18//18
f 18//18 23//23 24//24
f 24//24 30//30 18//18
f 24//24 25//25 27//27
f 24//24 29//29 25//25
f 24//24 26//26 30//30
f 27//27 26//26 24//24
f 28//28 29//29 24//24
f 18//18 30//30 31//31
f 31//31 30//30 32//32
f 32//32 30//30 33//33
f 34//34 26//26 35//35
f 35//35 26//26 27//27
f 38//38 37//37 36//36
f 38//38 39//39 37//37
f 41//41 39//39 38//38
f 41//41 40//40 39//39
f 42//42 43//43 41//41
f 41//41 43//43 40//40
f 42//42 44//44 43//43
f 46//46 44//44 42//42
f 47//47 45//45 44//44
f 47//47 44//44 46//46
f 48//48 45//45 47//47
f 32//32 51//51 50//50
f 50//50 52//52 49//49
f 50//50 51//51 52//52
f 54//54 52//52 53//53
f 49//49 52//52 54//54
f 54//54 53//53 48//48
f 48//48 53//53 55//55
f 48//48 55//55 45//45
f 32//32 33//33 51//51
f 18//18 31//31 56//56
f 57//57 38//38 1//1
f 1//1 38//38 58//58
f 25//25 38//38 36//36
f 25//25 58//58 38//38
f 2//2 58//58 5//5
f 1//1 58//58 2//2
f 29//29 58//58 25//25
f 28//28 59//59 29//29
f 60//60 59//59 28//28
f 16//16 8//8 17//17
f 17//17 8//8 9//9
f 17//17 9//9 15//15
f 16//16 7//7 8//8
f 4//4 7//7 16//16
f 15//15 9//9 10//10

