# Blender 4.0.0
# www.blender.org
o door_Clear
v 0.08341300 -0.21138300 0.07490850
v 0.08341300 -0.21138300 -0.06404550
v 0.08341300 -0.21874300 -0.06404550
v 0.08341300 -0.21874300 0.07490850
v -0.21734900 -0.21874300 0.07490850
v -0.21734900 -0.21874300 -0.06404550
v -0.21734900 -0.21138300 -0.06404550
v -0.21734900 -0.21138300 0.07490850
v -0.21734900 -0.21138300 -0.06404550
v -0.21734900 -0.21874300 0.07490850
v -0.21734900 -0.21874300 -0.06404550
v -0.21734900 -0.21138300 0.07490850
v 0.08341300 -0.21138300 0.07490850
v 0.08341300 -0.21138300 -0.06404550
v -0.25611600 -0.21138300 -0.08570150
v 0.13006300 -0.21138300 -0.08570150
v 0.13006300 -0.21138300 0.09369650
v -0.25611600 -0.21138300 0.09369650
v 0.08341300 -0.21874300 -0.06404550
v 0.08341300 -0.21874300 0.07490850
v -0.25611600 -0.21874300 -0.08570150
v 0.13006300 -0.21874300 -0.08570150
v -0.25611600 -0.21874300 0.09369650
v 0.13006300 -0.21874300 0.09369650
vn 1.0000 -0.0000 -0.0000
vn -0.0000 -1.0000 -0.0000
vn -1.0000 -0.0000 -0.0000
vn -0.0000 -0.0000 1.0000
vn -0.0000 1.0000 -0.0000
vn -0.0000 -0.0000 -1.0000
vt 0.000000 0.000000
vt 1.000000 1.000000
vt 1.000000 0.000000
vt 0.000000 1.000000
vt 0.895274 0.120799
vt 0.895274 0.899615
vt 0.120713 0.899615
vt 0.120713 0.120799
vt 0.120713 0.879201
vt 0.120713 0.100385
vt 0.895274 0.879201
vt 0.895274 0.100385
vt 1.000000 -0.000000
vt 0.000000 -0.000000
s 1
f 2/1/1 4/2/1 3/3/1
f 5/3/2 3/4/2 4/2/2
f 6/2/3 8/1/3 7/4/3
f 8/4/4 4/3/4 1/1/4
f 8/2/5 2/1/5 7/4/5
f 7/1/6 3/2/6 6/3/6
f 2/1/1 1/4/1 4/2/1
f 5/3/2 6/1/2 3/4/2
f 6/2/3 5/3/3 8/1/3
f 8/4/4 5/2/4 4/3/4
f 8/2/5 1/3/5 2/1/5
f 7/1/6 2/4/6 3/2/6
f 13/5/5 12/6/5 18/2/5
f 15/4/5 18/2/5 9/7/5
f 16/1/5 15/4/5 14/8/5
f 14/8/5 17/3/5 16/1/5
f 15/4/5 9/7/5 14/8/5
f 18/2/5 12/6/5 9/7/5
f 14/8/5 13/5/5 17/3/5
f 13/5/5 18/2/5 17/3/5
f 22/2/6 21/3/6 15/1/6
f 15/1/6 16/4/6 22/2/6
f 18/4/4 23/2/4 24/3/4
f 17/1/4 18/4/4 24/3/4
f 22/4/2 24/2/2 19/9/2
f 19/9/2 11/10/2 22/4/2
f 21/1/2 22/4/2 11/10/2
f 11/10/2 23/3/2 21/1/2
f 24/2/2 20/11/2 19/9/2
f 24/2/2 10/12/2 20/11/2
f 11/10/2 10/12/2 23/3/2
f 10/12/2 24/2/2 23/3/2
f 9/4/1 10/3/1 11/2/1
f 13/4/3 19/3/3 20/2/3
f 16/1/1 24/2/1 22/3/1
f 15/4/3 23/3/3 18/1/3
f 14/4/4 11/13/4 19/2/4
f 13/1/6 10/2/6 12/4/6
f 9/4/1 12/1/1 10/3/1
f 13/4/3 14/1/3 19/3/3
f 16/1/1 17/4/1 24/2/1
f 15/4/3 21/2/3 23/3/3
f 14/4/4 9/14/4 11/13/4
f 13/1/6 20/3/6 10/2/6
