mtllib material.mtl
usemtl black.010
v 0.00129100 -0.01651500 0.07850000
v 0.00039200 -0.01685000 0.07850000
v 0.00667300 -0.00568500 0.07850000
v 0.00048000 -0.00926000 0.07850000
v 0.01254900 -0.01001500 0.07850000
v 0.00694200 -0.00548600 0.07850000
v 0.01366100 -0.00892700 0.07850000
v -0.01357000 -0.01001500 0.07850000
v -0.01431200 -0.00940100 0.07850000
v -0.00231200 -0.01651500 0.07850000
v -0.00081600 -0.01693400 0.07850000
v -0.00504400 -0.00721600 0.07850000
v -0.00415100 -0.00773100 0.07850000
v -0.00504400 0.00158900 0.07850000
v -0.00769300 -0.00568500 0.07850000
v -0.00796200 -0.00548800 0.07850000
v -0.00850100 -0.00473500 0.07850000
v -0.01537200 -0.00689400 0.07850000
v -0.00868500 -0.00396900 0.07850000
v -0.01498600 -0.00840000 0.07850000
v -0.00868500 0.00318100 0.07850000
v -0.01537200 0.00610600 0.07850000
v -0.00864700 0.00351500 0.07850000
v -0.01521200 0.00705100 0.07850000
v -0.00826600 0.00435500 0.07850000
v -0.00493300 0.00203300 0.07850000
v -0.00468700 0.00238700 0.07850000
v -0.00449300 0.00254000 0.07850000
v 0.00313100 0.00694200 0.07850000
v -0.00150100 0.00847200 0.07850000
v -0.00231200 0.01572600 0.07850000
v -0.00119500 0.00860600 0.07850000
v -0.00769300 0.00489700 0.07850000
v -0.01357000 0.00922700 0.07850000
v -0.01468100 0.00814100 0.07850000
v -0.00141000 0.01606200 0.07850000
v -0.00027500 0.00869700 0.07850000
v 0.00048000 0.00847200 0.07850000
v 0.00402300 0.00642700 0.07850000
v 0.00129100 0.01572600 0.07850000
v -0.00020600 0.01614500 0.07850000
v 0.01254900 0.00922700 0.07850000
v 0.01329100 0.00861400 0.07850000
v 0.01396600 0.00761100 0.07850000
v 0.00667300 0.00489700 0.07850000
v 0.00724500 0.00435500 0.07850000
v 0.00762600 0.00351400 0.07850000
v 0.01435100 0.00610600 0.07850000
v 0.00766300 0.00318100 0.07850000
v 0.00766300 -0.00396900 0.07850000
v 0.01419100 -0.00784300 0.07850000
v 0.01435100 -0.00689400 0.07850000
v 0.00748000 -0.00473600 0.07850000
v -0.00027500 -0.00948500 0.07850000
v -0.00119500 -0.00939400 0.07850000
v -0.00150100 -0.00926000 0.07850000
v 0.00347300 -0.00332800 0.07850000
v 0.00380400 -0.00300900 0.07850000
v 0.00398600 -0.00262600 0.07850000
v 0.00402300 -0.00237600 0.07850000
vn -0.00000000 -0.00000000 1.00000000
vn -0.00000000 -0.00000000 1.00000000
vn -0.00000000 -0.00000000 1.00000000
vn -0.00000000 -0.00000000 1.00000000
vn -0.00000000 -0.00000000 1.00000000
vn -0.00000000 -0.00000000 1.00000000
vn -0.00000000 -0.00000000 1.00000000
vn -0.00000000 -0.00000000 1.00000000
vn -0.00000000 -0.00000000 1.00000000
vn -0.00000000 -0.00000000 1.00000000
vn -0.00000000 -0.00000000 1.00000000
vn -0.00000000 -0.00000000 1.00000000
vn -0.00000000 -0.00000000 1.00000000
vn -0.00000000 -0.00000000 1.00000000
vn -0.00000000 -0.00000000 1.00000000
vn -0.00000000 -0.00000000 1.00000000
vn -0.00000000 -0.00000000 1.00000000
vn -0.00000000 -0.00000000 1.00000000
vn -0.00000000 -0.00000000 1.00000000
vn -0.00000000 -0.00000000 1.00000000
vn -0.00000000 -0.00000000 1.00000000
vn -0.00000000 -0.00000000 1.00000000
vn -0.00000000 -0.00000000 1.00000000
vn -0.00000000 -0.00000000 1.00000000
vn -0.00000000 -0.00000000 1.00000000
vn -0.00000000 -0.00000000 1.00000000
vn -0.00000000 -0.00000000 1.00000000
vn -0.00000000 -0.00000000 1.00000000
vn -0.00000000 -0.00000000 1.00000000
vn -0.00000000 -0.00000000 1.00000000
vn -0.00000000 -0.00000000 1.00000000
vn -0.00000000 -0.00000000 1.00000000
vn -0.00000000 -0.00000000 1.00000000
vn -0.00000000 -0.00000000 1.00000000
vn -0.00000000 -0.00000000 1.00000000
vn -0.00000000 -0.00000000 1.00000000
vn -0.00000000 -0.00000000 1.00000000
vn -0.00000000 -0.00000000 1.00000000
vn -0.00000000 -0.00000000 1.00000000
vn -0.00000000 -0.00000000 1.00000000
vn -0.00000000 -0.00000000 1.00000000
vn -0.00000000 -0.00000000 1.00000000
vn -0.00000000 -0.00000000 1.00000000
vn -0.00000000 -0.00000000 1.00000000
vn -0.00000000 -0.00000000 1.00000000
vn -0.00000000 -0.00000000 1.00000000
vn -0.00000000 -0.00000000 1.00000000
vn -0.00000000 -0.00000000 1.00000000
vn -0.00000000 -0.00000000 1.00000000
vn -0.00000000 -0.00000000 1.00000000
vn -0.00000000 -0.00000000 1.00000000
vn -0.00000000 -0.00000000 1.00000000
vn -0.00000000 -0.00000000 1.00000000
vn -0.00000000 -0.00000000 1.00000000
vn -0.00000000 -0.00000000 1.00000000
vn -0.00000000 -0.00000000 1.00000000
vn -0.00000000 -0.00000000 1.00000000
vn -0.00000000 -0.00000000 1.00000000
vn -0.00000000 -0.00000000 1.00000000
vn -0.00000000 -0.00000000 1.00000000
f 1//1 4//4 2//2
f 1//1 3//3 4//4
f 5//5 3//3 1//1
f 5//5 6//6 3//3
f 7//7 6//6 5//5
f 2//2 10//10 11//11
f 2//2 12//12 10//10
f 10//10 12//12 8//8
f 13//13 12//12 2//2
f 13//13 14//14 12//12
f 8//8 12//12 15//15
f 8//8 15//15 16//16
f 8//8 16//16 9//9
f 9//9 16//16 17//17
f 9//9 17//17 20//20
f 18//18 17//17 19//19
f 20//20 17//17 18//18
f 22//22 19//19 21//21
f 22//22 21//21 23//23
f 22//22 23//23 24//24
f 24//24 23//23 25//25
f 26//26 14//14 27//27
f 27//27 14//14 28//28
f 13//13 29//29 28//28
f 28//28 14//14 13//13
f 31//31 30//30 32//32
f 31//31 33//33 30//30
f 34//34 25//25 33//33
f 34//34 33//33 31//31
f 35//35 25//25 34//34
f 24//24 25//25 35//35
f 36//36 32//32 37//37
f 31//31 32//32 36//36
f 36//36 37//37 38//38
f 29//29 36//36 38//38
f 40//40 36//36 39//39
f 29//29 39//39 36//36
f 41//41 36//36 40//40
f 42//42 45//45 43//43
f 43//43 46//46 44//44
f 43//43 45//45 46//46
f 44//44 46//46 47//47
f 48//48 47//47 49//49
f 44//44 47//47 48//48
f 51//51 50//50 53//53
f 52//52 50//50 51//51
f 52//52 49//49 50//50
f 2//2 54//54 55//55
f 2//2 4//4 54//54
f 55//55 56//56 2//2
f 58//58 59//59 57//57
f 57//57 59//59 60//60
f 57//57 60//60 13//13
f 60//60 39//39 29//29
f 13//13 60//60 29//29
f 2//2 56//56 13//13
f 51//51 53//53 7//7
f 7//7 53//53 6//6
f 48//48 49//49 52//52
f 42//42 39//39 45//45
f 40//40 39//39 42//42
f 18//18 19//19 22//22

