mtllib material.mtl
usemtl red_light.001
v 0.05200300 0.02500000 -0.06550000
v 0.05200300 0.02500000 -0.06550000
v 0.05200300 0.02500000 -0.05450000
v 0.05200300 0.02500000 -0.05450000
v 0.05200300 0.02300000 -0.06550000
v 0.05200300 0.02300000 -0.06550000
v 0.05200300 0.02300000 -0.05450000
v 0.05200300 0.02300000 -0.05450000
v 0.05500300 0.02500000 -0.05150000
v 0.05500300 0.02500000 -0.05150000
v 0.05500300 0.02300000 -0.05150000
v 0.05500300 0.02300000 -0.05150000
v 0.05385500 0.02500000 -0.05172800
v 0.05385500 0.02500000 -0.05172800
v 0.05385500 0.02300000 -0.05172800
v 0.05385500 0.02300000 -0.05172800
v 0.05288200 0.02500000 -0.05237900
v 0.05288200 0.02500000 -0.05237900
v 0.05288200 0.02300000 -0.05237900
v 0.05288200 0.02300000 -0.05237900
v 0.05223200 0.02500000 -0.05335200
v 0.05223200 0.02500000 -0.05335200
v 0.05223200 0.02300000 -0.05335200
v 0.05223200 0.02300000 -0.05335200
v 0.05223200 0.02500000 -0.06664800
v 0.05223200 0.02500000 -0.06664800
v 0.05223200 0.02300000 -0.06664800
v 0.05223200 0.02300000 -0.06664800
v 0.05288200 0.02500000 -0.06762100
v 0.05288200 0.02500000 -0.06762100
v 0.05288200 0.02300000 -0.06762100
v 0.05288200 0.02300000 -0.06762100
v 0.05385500 0.02500000 -0.06827200
v 0.05385500 0.02500000 -0.06827200
v 0.05385500 0.02300000 -0.06827200
v 0.05385500 0.02300000 -0.06827200
v 0.05500300 0.02500000 -0.06850000
v 0.05500300 0.02500000 -0.06850000
v 0.05500300 0.02300000 -0.06850000
v 0.05500300 0.02300000 -0.06850000
v 0.17100300 0.02500000 -0.06850000
v 0.17100300 0.02500000 -0.06850000
v 0.17215100 0.02500000 -0.06827200
v 0.17215100 0.02500000 -0.06827200
v 0.17312500 0.02500000 -0.06762100
v 0.17312500 0.02500000 -0.06762100
v 0.17377500 0.02500000 -0.05335200
v 0.17377500 0.02500000 -0.05335200
v 0.17312500 0.02500000 -0.05237900
v 0.17312500 0.02500000 -0.05237900
v 0.17215100 0.02500000 -0.05172800
v 0.17215100 0.02500000 -0.05172800
v 0.17100300 0.02500000 -0.05150000
v 0.17100300 0.02500000 -0.05150000
v 0.17377500 0.02500000 -0.06664800
v 0.17377500 0.02500000 -0.06664800
v 0.17400300 0.02500000 -0.06550000
v 0.17400300 0.02500000 -0.06550000
v 0.17400300 0.02500000 -0.05450000
v 0.17400300 0.02500000 -0.05450000
v 0.17377500 0.02300000 -0.05335200
v 0.17377500 0.02300000 -0.05335200
v 0.17312500 0.02300000 -0.05237900
v 0.17312500 0.02300000 -0.05237900
v 0.17215100 0.02300000 -0.05172800
v 0.17215100 0.02300000 -0.05172800
v 0.17100300 0.02300000 -0.05150000
v 0.17100300 0.02300000 -0.05150000
v 0.17215100 0.02300000 -0.06827200
v 0.17215100 0.02300000 -0.06827200
v 0.17312500 0.02300000 -0.06762100
v 0.17312500 0.02300000 -0.06762100
v 0.17377500 0.02300000 -0.06664800
v 0.17377500 0.02300000 -0.06664800
v 0.17400300 0.02300000 -0.06550000
v 0.17400300 0.02300000 -0.06550000
v 0.17400300 0.02300000 -0.05450000
v 0.17400300 0.02300000 -0.05450000
v 0.17100300 0.02300000 -0.06850000
v 0.17100300 0.02300000 -0.06850000
v 0.05200300 -0.02700000 -0.05450000
v 0.05200300 -0.02700000 -0.05450000
v 0.05200300 -0.02700000 -0.06550000
v 0.05200300 -0.02700000 -0.06550000
v 0.05200300 -0.02500000 -0.05450000
v 0.05200300 -0.02500000 -0.05450000
v 0.05200300 -0.02500000 -0.06550000
v 0.05200300 -0.02500000 -0.06550000
v 0.05500300 -0.02700000 -0.06850000
v 0.05500300 -0.02700000 -0.06850000
v 0.05500300 -0.02500000 -0.06850000
v 0.05500300 -0.02500000 -0.06850000
v 0.05385500 -0.02700000 -0.06827200
v 0.05385500 -0.02700000 -0.06827200
v 0.05385500 -0.02500000 -0.06827200
v 0.05385500 -0.02500000 -0.06827200
v 0.05288200 -0.02700000 -0.06762100
v 0.05288200 -0.02700000 -0.06762100
v 0.05288200 -0.02500000 -0.06762100
v 0.05288200 -0.02500000 -0.06762100
v 0.05223200 -0.02700000 -0.06664800
v 0.05223200 -0.02700000 -0.06664800
v 0.05223200 -0.02500000 -0.06664800
v 0.05223200 -0.02500000 -0.06664800
v 0.05223200 -0.02700000 -0.05335200
v 0.05223200 -0.02700000 -0.05335200
v 0.05223200 -0.02500000 -0.05335200
v 0.05223200 -0.02500000 -0.05335200
v 0.05288200 -0.02700000 -0.05237900
v 0.05288200 -0.02700000 -0.05237900
v 0.05288200 -0.02500000 -0.05237900
v 0.05288200 -0.02500000 -0.05237900
v 0.05385500 -0.02700000 -0.05172800
v 0.05385500 -0.02700000 -0.05172800
v 0.05385500 -0.02500000 -0.05172800
v 0.05385500 -0.02500000 -0.05172800
v 0.05500300 -0.02700000 -0.05150000
v 0.05500300 -0.02700000 -0.05150000
v 0.05500300 -0.02500000 -0.05150000
v 0.05500300 -0.02500000 -0.05150000
v 0.17215100 -0.02700000 -0.05172800
v 0.17215100 -0.02700000 -0.05172800
v 0.17312500 -0.02700000 -0.05237900
v 0.17312500 -0.02700000 -0.05237900
v 0.17377500 -0.02700000 -0.06664800
v 0.17377500 -0.02700000 -0.06664800
v 0.17312500 -0.02700000 -0.06762100
v 0.17312500 -0.02700000 -0.06762100
v 0.17215100 -0.02700000 -0.06827200
v 0.17215100 -0.02700000 -0.06827200
v 0.17100300 -0.02700000 -0.05150000
v 0.17100300 -0.02700000 -0.05150000
v 0.17377500 -0.02700000 -0.05335200
v 0.17377500 -0.02700000 -0.05335200
v 0.17400300 -0.02700000 -0.05450000
v 0.17400300 -0.02700000 -0.05450000
v 0.17400300 -0.02700000 -0.06550000
v 0.17400300 -0.02700000 -0.06550000
v 0.17100300 -0.02700000 -0.06850000
v 0.17100300 -0.02700000 -0.06850000
v 0.17215100 -0.02500000 -0.05172800
v 0.17215100 -0.02500000 -0.05172800
v 0.17312500 -0.02500000 -0.05237900
v 0.17312500 -0.02500000 -0.05237900
v 0.17377500 -0.02500000 -0.05335200
v 0.17377500 -0.02500000 -0.05335200
v 0.17400300 -0.02500000 -0.05450000
v 0.17400300 -0.02500000 -0.05450000
v 0.17400300 -0.02500000 -0.06550000
v 0.17400300 -0.02500000 -0.06550000
v 0.17377500 -0.02500000 -0.06664800
v 0.17377500 -0.02500000 -0.06664800
v 0.17312500 -0.02500000 -0.06762100
v 0.17312500 -0.02500000 -0.06762100
v 0.17215100 -0.02500000 -0.06827200
v 0.17215100 -0.02500000 -0.06827200
v 0.17100300 -0.02500000 -0.06850000
v 0.17100300 -0.02500000 -0.06850000
v 0.17100300 -0.02500000 -0.05150000
v 0.17100300 -0.02500000 -0.05150000
v 0.17550500 -0.02500000 -0.06550000
v 0.17550500 -0.02500000 -0.06550000
v 0.17550500 -0.02500000 -0.05450000
v 0.17550500 -0.02500000 -0.05450000
v 0.17550500 -0.02500000 -0.05450000
v 0.17100500 -0.02500000 -0.07000000
v 0.05500100 -0.02500000 -0.07000000
v 0.17539300 -0.02500000 -0.05349900
v 0.17539300 -0.02500000 -0.05349900
v 0.17100500 -0.02500000 -0.05000000
v 0.05500100 -0.02500000 -0.05000000
v 0.05050100 -0.02500000 -0.05450000
v 0.05050100 -0.02500000 -0.06550000
v 0.17550500 -0.02200000 -0.05450000
v 0.17550500 -0.02200000 -0.05450000
v 0.17539300 -0.02200000 -0.05349900
v 0.17100500 0.02300000 -0.05000000
v 0.17550500 0.02300000 -0.05450000
v 0.05500100 0.02300000 -0.05000000
v 0.05050100 0.02300000 -0.05450000
v 0.05050100 0.02300000 -0.06550000
v 0.05500100 0.02300000 -0.07000000
v 0.17550500 0.02300000 -0.06550000
v 0.17100500 0.02300000 -0.07000000
vn 1.00000000 -0.00000000 -0.00000000
vn 0.98070000 -0.00000000 0.19560000
vn 0.98070000 -0.00000000 -0.19530000
vn 1.00000000 -0.00000000 -0.00000000
vn 1.00000000 -0.00000000 -0.00000000
vn 0.98070000 -0.00000000 0.19530000
vn 0.98070000 -0.00000000 -0.19560000
vn 1.00000000 -0.00000000 -0.00000000
vn -0.00000000 -0.00000000 -1.00000000
vn 0.19480000 -0.00000000 -0.98080000
vn 0.19480000 -0.00000000 -0.98080000
vn -0.00000000 -0.00000000 -1.00000000
vn 0.19510000 -0.00000000 -0.98080000
vn 0.55580000 -0.00000000 -0.83130000
vn 0.19480000 -0.00000000 -0.98080000
vn 0.55570000 -0.00000000 -0.83140000
vn 0.55570000 -0.00000000 -0.83140000
vn 0.83150000 -0.00000000 -0.55550000
vn 0.83150000 -0.00000000 -0.55550000
vn 0.55570000 -0.00000000 -0.83140000
vn 0.83150000 -0.00000000 -0.55550000
vn 0.98080000 -0.00000000 -0.19520000
vn 0.98070000 -0.00000000 -0.19530000
vn 0.83150000 -0.00000000 -0.55550000
vn 0.98070000 -0.00000000 0.19530000
vn 0.83150000 -0.00000000 0.55550000
vn 0.83150000 -0.00000000 0.55550000
vn 0.98080000 -0.00000000 0.19520000
vn 0.83150000 -0.00000000 0.55550000
vn 0.55570000 -0.00000000 0.83140000
vn 0.55570000 -0.00000000 0.83140000
vn 0.83150000 -0.00000000 0.55550000
vn 0.19480000 -0.00000000 0.98080000
vn 0.55580000 -0.00000000 0.83130000
vn 0.55570000 -0.00000000 0.83140000
vn 0.19480000 -0.00000000 0.98080000
vn 0.19480000 -0.00000000 0.98080000
vn -0.00000000 -0.00000000 1.00000000
vn -0.00000000 -0.00000000 1.00000000
vn 0.19480000 -0.00000000 0.98080000
vn -0.00000000 -0.00000000 1.00000000
vn -0.19480000 -0.00000000 0.98080000
vn -0.19480000 -0.00000000 0.98080000
vn -0.55570000 -0.00000000 0.83140000
vn -0.55570000 -0.00000000 0.83140000
vn -0.83150000 -0.00000000 0.55550000
vn -0.98080000 -0.00000000 -0.19510000
vn -0.83150000 -0.00000000 -0.55550000
vn -0.83150000 -0.00000000 -0.55550000
vn -0.55570000 -0.00000000 -0.83140000
vn -0.55570000 -0.00000000 -0.83140000
vn -0.19480000 -0.00000000 -0.98080000
vn -0.19480000 -0.00000000 -0.98080000
vn -0.00000000 -0.00000000 -1.00000000
vn -0.98080000 -0.00000000 0.19480000
vn -0.83150000 -0.00000000 0.55550000
vn -0.98080000 -0.00000000 0.19510000
vn -1.00000000 -0.00000000 -0.00000000
vn -1.00000000 -0.00000000 -0.00000000
vn -0.98070000 -0.00000000 -0.19530000
vn -0.83150000 -0.00000000 -0.55550000
vn -0.98080000 -0.00000000 -0.19480000
vn -0.83150000 -0.00000000 -0.55550000
vn -0.55570000 -0.00000000 -0.83140000
vn -0.55570000 -0.00000000 -0.83140000
vn -0.19510000 -0.00000000 -0.98080000
vn -0.00000000 -0.00000000 -1.00000000
vn -0.19480000 -0.00000000 -0.98080000
vn -0.19480000 -0.00000000 0.98080000
vn -0.55570000 -0.00000000 0.83140000
vn -0.55570000 -0.00000000 0.83140000
vn -0.83150000 -0.00000000 0.55550000
vn -0.98080000 -0.00000000 0.19510000
vn -0.83150000 -0.00000000 0.55550000
vn -1.00000000 -0.00000000 -0.00000000
vn -0.98070000 -0.00000000 0.19530000
vn -0.98080000 -0.00000000 -0.19510000
vn -1.00000000 -0.00000000 -0.00000000
vn -0.00000000 -0.00000000 1.00000000
vn -0.19480000 -0.00000000 0.98080000
vn 1.00000000 -0.00000000 -0.00000000
vn 0.98080000 -0.00000000 -0.19520000
vn 0.98080000 -0.00000000 0.19520000
vn 1.00000000 -0.00000000 -0.00000000
vn 0.98070000 -0.00000000 -0.19530000
vn 1.00000000 -0.00000000 -0.00000000
vn 1.00000000 -0.00000000 -0.00000000
vn 0.98070000 -0.00000000 0.19560000
vn 0.19480000 -0.00000000 0.98080000
vn -0.00000000 -0.00000000 1.00000000
vn 0.19480000 -0.00000000 0.98080000
vn -0.00000000 -0.00000000 1.00000000
vn 0.55570000 -0.00000000 0.83140000
vn 0.19480000 -0.00000000 0.98080000
vn 0.19480000 -0.00000000 0.98080000
vn 0.55570000 -0.00000000 0.83140000
vn 0.55550000 -0.00000000 0.83150000
vn 0.83150000 -0.00000000 0.55550000
vn 0.55570000 -0.00000000 0.83140000
vn 0.83150000 -0.00000000 0.55550000
vn 0.83150000 -0.00000000 0.55550000
vn 0.98070000 -0.00000000 0.19560000
vn 0.83150000 -0.00000000 0.55550000
vn 0.98070000 -0.00000000 0.19530000
vn 0.83150000 -0.00000000 -0.55550000
vn 0.98070000 -0.00000000 -0.19560000
vn 0.83150000 -0.00000000 -0.55550000
vn 0.98070000 -0.00000000 -0.19530000
vn 0.83150000 -0.00000000 -0.55550000
vn 0.55570000 -0.00000000 -0.83140000
vn 0.55570000 -0.00000000 -0.83140000
vn 0.83150000 -0.00000000 -0.55550000
vn 0.55570000 -0.00000000 -0.83140000
vn 0.19480000 -0.00000000 -0.98080000
vn 0.55580000 -0.00000000 -0.83130000
vn 0.19480000 -0.00000000 -0.98080000
vn 0.19480000 -0.00000000 -0.98080000
vn -0.00000000 -0.00000000 -1.00000000
vn -0.00000000 -0.00000000 -1.00000000
vn 0.19480000 -0.00000000 -0.98080000
vn -0.55570000 -0.00000000 -0.83140000
vn -0.19480000 -0.00000000 -0.98080000
vn -0.55570000 -0.00000000 -0.83140000
vn -0.83150000 -0.00000000 -0.55550000
vn -0.98080000 -0.00000000 0.19480000
vn -0.83150000 -0.00000000 0.55550000
vn -0.83150000 -0.00000000 0.55550000
vn -0.55570000 -0.00000000 0.83140000
vn -0.55570000 -0.00000000 0.83140000
vn -0.19480000 -0.00000000 0.98080000
vn -0.00000000 -0.00000000 -1.00000000
vn -0.19480000 -0.00000000 -0.98080000
vn -0.98080000 -0.00000000 -0.19510000
vn -0.83150000 -0.00000000 -0.55550000
vn -0.98080000 -0.00000000 -0.19480000
vn -1.00000000 -0.00000000 -0.00000000
vn -0.98080000 -0.00000000 0.19510000
vn -1.00000000 -0.00000000 -0.00000000
vn -0.00000000 -0.00000000 1.00000000
vn -0.19530000 -0.00000000 0.98080000
vn -0.55570000 -0.00000000 -0.83140000
vn -0.19480000 -0.00000000 -0.98080000
vn -0.83150000 -0.00000000 -0.55550000
vn -0.55570000 -0.00000000 -0.83140000
vn -0.83150000 -0.00000000 -0.55550000
vn -0.98080000 -0.00000000 -0.19480000
vn -1.00000000 -0.00000000 -0.00000000
vn -0.98080000 -0.00000000 -0.19480000
vn -0.98080000 -0.00000000 0.19480000
vn -1.00000000 -0.00000000 -0.00000000
vn -0.98080000 -0.00000000 0.19480000
vn -0.83150000 -0.00000000 0.55550000
vn -0.83150000 -0.00000000 0.55550000
vn -0.55570000 -0.00000000 0.83140000
vn -0.55570000 -0.00000000 0.83140000
vn -0.19480000 -0.00000000 0.98080000
vn -0.19480000 -0.00000000 0.98080000
vn -0.00000000 -0.00000000 1.00000000
vn -0.00000000 -0.00000000 -1.00000000
vn -0.19480000 -0.00000000 -0.98080000
vn 1.00000000 -0.00000000 -0.00000000
vn -0.00000000 -1.00000000 -0.00000000
vn 1.00000000 -0.00000000 -0.00000000
vn 0.99370000 -0.00000000 0.11190000
vn -0.00000000 -1.00000000 -0.00000000
vn -0.00000000 -1.00000000 -0.00000000
vn -0.00000000 -1.00000000 -0.00000000
vn -0.00000000 -1.00000000 -0.00000000
vn 0.99370000 -0.00000000 0.11200000
vn -0.00000000 -1.00000000 -0.00000000
vn -0.00000000 -1.00000000 -0.00000000
vn -0.00000000 -1.00000000 -0.00000000
vn -0.00000000 -1.00000000 -0.00000000
vn 1.00000000 -0.00000000 -0.00000000
vn 0.99370000 -0.00000000 0.11190000
vn 0.99370000 -0.00000000 0.11190000
vn -0.00000000 1.00000000 -0.00000000
vn -0.00000000 1.00000000 -0.00000000
vn -0.00000000 1.00000000 -0.00000000
vn -0.00000000 1.00000000 -0.00000000
vn -0.00000000 1.00000000 -0.00000000
vn -0.00000000 1.00000000 -0.00000000
vn -0.00000000 1.00000000 -0.00000000
vn -0.00000000 1.00000000 -0.00000000
f 1//1 4//4 5//5
f 5//5 4//4 8//8
f 10//10 11//11 13//13
f 13//13 11//11 15//15
f 14//14 16//16 17//17
f 17//17 16//16 20//20
f 18//18 19//19 21//21
f 21//21 19//19 24//24
f 22//22 23//23 3//3
f 3//3 23//23 7//7
f 2//2 6//6 25//25
f 25//25 6//6 28//28
f 26//26 27//27 29//29
f 29//29 27//27 32//32
f 30//30 31//31 34//34
f 34//34 31//31 35//35
f 33//33 36//36 37//37
f 37//37 36//36 40//40
f 41//41 38//38 79//79
f 79//79 38//38 39//39
f 67//67 12//12 54//54
f 54//54 12//12 9//9
f 59//59 58//58 78//78
f 78//78 58//58 75//75
f 60//60 77//77 47//47
f 47//47 77//77 62//62
f 48//48 61//61 49//49
f 49//49 61//61 63//63
f 50//50 64//64 51//51
f 51//51 64//64 65//65
f 52//52 66//66 53//53
f 53//53 66//66 68//68
f 42//42 80//80 43//43
f 43//43 80//80 69//69
f 44//44 70//70 45//45
f 45//45 70//70 71//71
f 46//46 72//72 56//56
f 56//56 72//72 74//74
f 55//55 73//73 57//57
f 57//57 73//73 76//76
f 81//81 84//84 86//86
f 86//86 84//84 87//87
f 89//89 91//91 94//94
f 94//94 91//91 95//95
f 93//93 96//96 97//97
f 97//97 96//96 99//99
f 98//98 100//100 101//101
f 101//101 100//100 103//103
f 102//102 104//104 83//83
f 83//83 104//104 88//88
f 82//82 85//85 106//106
f 106//106 85//85 108//108
f 105//105 107//107 109//109
f 109//109 107//107 112//112
f 110//110 111//111 113//113
f 113//113 111//111 115//115
f 114//114 116//116 117//117
f 117//117 116//116 120//120
f 131//131 118//118 159//159
f 159//159 118//118 119//119
f 158//158 92//92 139//139
f 139//139 92//92 90//90
f 138//138 136//136 150//150
f 150//150 136//136 147//147
f 137//137 149//149 125//125
f 125//125 149//149 151//151
f 126//126 152//152 127//127
f 127//127 152//152 153//153
f 128//128 154//154 129//129
f 129//129 154//154 155//155
f 130//130 156//156 140//140
f 140//140 156//156 157//157
f 132//132 160//160 122//122
f 122//122 160//160 142//142
f 121//121 141//141 123//123
f 123//123 141//141 144//144
f 124//124 143//143 134//134
f 134//134 143//143 145//145
f 133//133 146//146 135//135
f 135//135 146//146 148//148
f 162//162 165//165 166//166
f 166//166 165//165 167//167
f 165//165 168//168 170//170
f 170//170 171//171 172//172
f 170//170 172//172 165//165
f 165//165 172//172 173//173
f 165//165 173//173 167//167
f 161//161 174//174 163//163
f 176//176 169//169 164//164
f 176//176 164//164 175//175
f 184//184 182//182 181//181
f 183//183 184//184 178//178
f 178//178 184//184 181//181
f 178//178 181//181 180//180
f 177//177 178//178 179//179
f 179//179 178//178 180//180

